Ronzino-Bold Oblique.ufo
<glyph name="exclam" format="2">
  <advance width="275"/>
  <unicode hex="0021"/>
  <outline>
    <contour>
      <point x="94" y="220" type="line"/>
      <point x="176" y="220" type="line"/>
      <point x="251" y="532" type="line"/>
      <point x="273" y="692" type="line"/>
      <point x="128" y="692" type="line"/>
      <point x="106" y="532" type="line"/>
    </contour>
    <component base="period" xOffset="19"/>
  </outline>
</glyph>
<glyph name="numbersign" format="2">
  <advance width="608"/>
  <unicode hex="0023"/>
  <outline>
    <contour>
      <point x="70" y="0" type="line"/>
      <point x="183" y="0" type="line"/>
      <point x="330" y="690" type="line"/>
      <point x="218" y="690" type="line"/>
    </contour>
    <contour>
      <point x="-6" y="159" type="line"/>
      <point x="575" y="159" type="line"/>
      <point x="592" y="254" type="line"/>
      <point x="12" y="254" type="line"/>
    </contour>
    <contour>
      <point x="308" y="0" type="line"/>
      <point x="420" y="0" type="line"/>
      <point x="564" y="690" type="line"/>
      <point x="452" y="690" type="line"/>
    </contour>
    <contour>
      <point x="35" y="430" type="line"/>
      <point x="617" y="430" type="line"/>
      <point x="634" y="525" type="line"/>
      <point x="53" y="525" type="line"/>
    </contour>
  </outline>
</glyph>
<glyph name="dollar" format="2">
  <advance width="661"/>
  <unicode hex="0024"/>
  <anchor x="293" y="0" name="bottom"/>
  <anchor x="390" y="692" name="top"/>
  <outline>
    <contour>
      <point x="297" y="-14" type="curve" smooth="yes"/>
      <point x="483" y="-14"/>
      <point x="602" y="81"/>
      <point x="602" y="230" type="curve" smooth="yes"/>
      <point x="602" y="465"/>
      <point x="244" y="360"/>
      <point x="244" y="502" type="curve" smooth="yes"/>
      <point x="244" y="564"/>
      <point x="297" y="605"/>
      <point x="375" y="605" type="curve" smooth="yes"/>
      <point x="446" y="605"/>
      <point x="494" y="569"/>
      <point x="491" y="506" type="curve"/>
      <point x="638" y="556" type="line"/>
      <point x="617" y="652"/>
      <point x="522" y="706"/>
      <point x="400" y="706" type="curve" smooth="yes"/>
      <point x="230" y="706"/>
      <point x="100" y="623"/>
      <point x="100" y="472" type="curve" smooth="yes"/>
      <point x="100" y="244"/>
      <point x="456" y="352"/>
      <point x="456" y="201" type="curve" smooth="yes"/>
      <point x="456" y="132"/>
      <point x="401" y="87"/>
      <point x="316" y="87" type="curve" smooth="yes"/>
      <point x="239" y="87"/>
      <point x="186" y="128"/>
      <point x="181" y="214" type="curve"/>
      <point x="38" y="164" type="line"/>
      <point x="54" y="52"/>
      <point x="154" y="-14"/>
    </contour>
    <contour>
      <point x="224" y="-105" type="line"/>
      <point x="336" y="-105" type="line"/>
      <point x="461" y="780" type="line"/>
      <point x="349" y="780" type="line"/>
    </contour>
  </outline>
</glyph>
<glyph name="ampersand" format="2">
  <advance width="741"/>
  <unicode hex="0026"/>
  <outline>
    <contour>
      <point x="559" y="-78" type="curve"/>
      <point x="677" y="-24" type="line"/>
      <point x="622" y="135"/>
      <point x="538" y="231"/>
      <point x="450" y="310" type="curve" smooth="yes"/>
      <point x="349" y="400"/>
      <point x="259" y="444"/>
      <point x="259" y="514" type="curve" smooth="yes"/>
      <point x="259" y="564"/>
      <point x="301" y="601"/>
      <point x="354" y="601" type="curve" smooth="yes"/>
      <point x="409" y="601"/>
      <point x="445" y="567"/>
      <point x="447" y="515" type="curve"/>
      <point x="554" y="548" type="line"/>
      <point x="546" y="642"/>
      <point x="472" y="702"/>
      <point x="371" y="702" type="curve" smooth="yes"/>
      <point x="228" y="702"/>
      <point x="138" y="619"/>
      <point x="138" y="495" type="curve" smooth="yes"/>
      <point x="138" y="395"/>
      <point x="234" y="346"/>
      <point x="344" y="247" type="curve" smooth="yes"/>
      <point x="442" y="160"/>
      <point x="539" y="55"/>
    </contour>
    <contour>
      <point x="502" y="-17"/>
      <point x="603" y="170"/>
      <point x="631" y="388" type="curve"/>
      <point x="514" y="388" type="line"/>
      <point x="490" y="205"/>
      <point x="420" y="90"/>
      <point x="297" y="90" type="curve" smooth="yes"/>
      <point x="222" y="90"/>
      <point x="173" y="129"/>
      <point x="173" y="192" type="curve" smooth="yes"/>
      <point x="173" y="256"/>
      <point x="215" y="305"/>
      <point x="285" y="341" type="curve"/>
      <point x="213" y="400" type="line"/>
      <point x="108" y="354"/>
      <point x="42" y="262"/>
      <point x="42" y="169" type="curve" smooth="yes"/>
      <point x="42" y="62"/>
      <point x="138" y="-17"/>
      <point x="276" y="-17" type="curve" smooth="yes"/>
    </contour>
  </outline>
</glyph>
<glyph name="quotesingle" format="2">
  <advance width="211"/>
  <unicode hex="0027"/>
  <outline>
    <contour>
      <point x="77" y="395" type="line"/>
      <point x="167" y="395" type="line"/>
      <point x="230" y="692" type="line"/>
      <point x="99" y="692" type="line"/>
    </contour>
  </outline>
</glyph>
<glyph name="parenleft" format="2">
  <advance width="351"/>
  <unicode hex="0028"/>
  <outline>
    <contour>
      <point x="170" y="-232" type="curve"/>
      <point x="268" y="-180" type="line"/>
      <point x="231" y="-102"/>
      <point x="213" y="-4"/>
      <point x="213" y="101" type="curve" smooth="yes"/>
      <point x="213" y="295"/>
      <point x="277" y="512"/>
      <point x="384" y="654" type="curve"/>
      <point x="300" y="706" type="line"/>
      <point x="164" y="555"/>
      <point x="75" y="332"/>
      <point x="75" y="131" type="curve" smooth="yes"/>
      <point x="75" y="4"/>
      <point x="106" y="-128"/>
    </contour>
  </outline>
</glyph>
<glyph name="asterisk" format="2">
  <advance width="402"/>
  <unicode hex="002A"/>
  <outline>
    <contour>
      <point x="73" y="562" type="line"/>
      <point x="141" y="540" type="line"/>
      <point x="211" y="529" type="line"/>
      <point x="217" y="568" type="line"/>
      <point x="143" y="507" type="line"/>
      <point x="91" y="444" type="line"/>
      <point x="156" y="391" type="line"/>
      <point x="210" y="452" type="line"/>
      <point x="254" y="519" type="line"/>
      <point x="218" y="519" type="line"/>
      <point x="244" y="452" type="line"/>
      <point x="280" y="391" type="line"/>
      <point x="359" y="444" type="line"/>
      <point x="325" y="507" type="line"/>
      <point x="269" y="568" type="line"/>
      <point x="263" y="529" type="line"/>
      <point x="337" y="540" type="line"/>
      <point x="411" y="562" type="line"/>
      <point x="398" y="650" type="line"/>
      <point x="321" y="628" type="line"/>
      <point x="253" y="593" type="line"/>
      <point x="277" y="566" type="line"/>
      <point x="300" y="646" type="line"/>
      <point x="310" y="722" type="line"/>
      <point x="218" y="722" type="line"/>
      <point x="208" y="646" type="line"/>
      <point x="209" y="566" type="line"/>
      <point x="240" y="593" type="line"/>
      <point x="180" y="628" type="line"/>
      <point x="110" y="651" type="line"/>
    </contour>
  </outline>
</glyph>
<glyph name="plus" format="2">
  <advance width="639"/>
  <unicode hex="002B"/>
  <outline>
    <contour>
      <point x="233" y="61" type="line"/>
      <point x="346" y="61" type="line"/>
      <point x="409" y="512" type="line"/>
      <point x="296" y="512" type="line"/>
    </contour>
    <contour>
      <point x="73" y="232" type="line"/>
      <point x="554" y="232" type="line"/>
      <point x="569" y="337" type="line"/>
      <point x="88" y="337" type="line"/>
    </contour>
  </outline>
</glyph>
<glyph name="comma" format="2">
  <advance width="236"/>
  <unicode hex="002C"/>
  <outline>
    <contour>
      <point x="-2" y="-156" type="line"/>
      <point x="82" y="-138"/>
      <point x="146" y="-71"/>
      <point x="158" y="11" type="curve" smooth="yes"/>
      <point x="178" y="153" type="line"/>
      <point x="28" y="153" type="line"/>
      <point x="7" y="0" type="line"/>
      <point x="81" y="0" type="line"/>
      <point x="80" y="-4" type="line" smooth="yes"/>
      <point x="73" y="-49"/>
      <point x="39" y="-81"/>
      <point x="-16" y="-89" type="curve"/>
    </contour>
  </outline>
</glyph>
<glyph name="hyphen" format="2">
  <advance width="495"/>
  <unicode hex="002D"/>
  <outline>
    <contour>
      <point x="91" y="219" type="line"/>
      <point x="389" y="219" type="line"/>
      <point x="405" y="330" type="line"/>
      <point x="107" y="330" type="line"/>
    </contour>
  </outline>
</glyph>
<glyph name="period" format="2">
  <advance width="237"/>
  <unicode hex="002E"/>
  <outline>
    <contour>
      <point x="3" y="0" type="line"/>
      <point x="157" y="0" type="line"/>
      <point x="179" y="153" type="line"/>
      <point x="25" y="153" type="line"/>
    </contour>
  </outline>
</glyph>
<glyph name="slash" format="2">
  <advance width="357"/>
  <unicode hex="002F"/>
  <outline>
    <contour>
      <point x="-44" y="-112" type="line"/>
      <point x="90" y="-112" type="line"/>
      <point x="406" y="694" type="line"/>
      <point x="273" y="694" type="line"/>
    </contour>
  </outline>
</glyph>
<glyph name="zero" format="2">
  <advance width="653"/>
  <unicode hex="0030"/>
  <outline>
    <contour>
      <point x="286" y="-14" type="curve" smooth="yes"/>
      <point x="480" y="-14"/>
      <point x="629" y="178"/>
      <point x="629" y="423" type="curve" smooth="yes"/>
      <point x="629" y="595"/>
      <point x="538" y="706"/>
      <point x="387" y="706" type="curve" smooth="yes"/>
      <point x="194" y="706"/>
      <point x="44" y="515"/>
      <point x="44" y="269" type="curve" smooth="yes"/>
      <point x="44" y="97"/>
      <point x="135" y="-14"/>
    </contour>
    <contour>
      <point x="295" y="95" type="curve" smooth="yes"/>
      <point x="219" y="95"/>
      <point x="178" y="164"/>
      <point x="181" y="277" type="curve" smooth="yes"/>
      <point x="188" y="458"/>
      <point x="275" y="599"/>
      <point x="378" y="599" type="curve" smooth="yes"/>
      <point x="455" y="599"/>
      <point x="495" y="529"/>
      <point x="492" y="417" type="curve" smooth="yes"/>
      <point x="485" y="237"/>
      <point x="399" y="95"/>
    </contour>
  </outline>
</glyph>
<glyph name="one" format="2">
  <advance width="403"/>
  <unicode hex="0031"/>
  <outline>
    <contour>
      <point x="157" y="0" type="line"/>
      <point x="293" y="0" type="line"/>
      <point x="390" y="693" type="line"/>
      <point x="269" y="693" type="line"/>
      <point x="217" y="621"/>
      <point x="136" y="575"/>
      <point x="47" y="556" type="curve"/>
      <point x="47" y="420" type="line"/>
      <point x="131" y="435"/>
      <point x="204" y="478"/>
      <point x="244" y="552" type="curve"/>
      <point x="235" y="552" type="line"/>
    </contour>
  </outline>
</glyph>
<glyph name="two" format="2">
  <advance width="554"/>
  <unicode hex="0032"/>
  <outline>
    <contour>
      <point x="-20" y="0" type="line"/>
      <point x="484" y="0" type="line"/>
      <point x="500" y="113" type="line"/>
      <point x="169" y="113" type="line"/>
      <point x="172" y="106" type="line"/>
      <point x="198" y="166"/>
      <point x="258" y="194"/>
      <point x="316" y="231" type="curve" smooth="yes"/>
      <point x="423" y="298"/>
      <point x="544" y="358"/>
      <point x="544" y="523" type="curve" smooth="yes"/>
      <point x="544" y="636"/>
      <point x="450" y="707"/>
      <point x="322" y="707" type="curve" smooth="yes"/>
      <point x="189" y="707"/>
      <point x="90" y="638"/>
      <point x="47" y="526" type="curve"/>
      <point x="167" y="483" type="line"/>
      <point x="185" y="557"/>
      <point x="239" y="601"/>
      <point x="306" y="601" type="curve" smooth="yes"/>
      <point x="363" y="601"/>
      <point x="406" y="568"/>
      <point x="406" y="511" type="curve" smooth="yes"/>
      <point x="406" y="421"/>
      <point x="329" y="371"/>
      <point x="241" y="315" type="curve" smooth="yes"/>
      <point x="138" y="250"/>
      <point x="12" y="178"/>
      <point x="-16" y="22" type="curve" smooth="yes"/>
    </contour>
  </outline>
</glyph>
<glyph name="three" format="2">
  <advance width="571"/>
  <unicode hex="0033"/>
  <outline>
    <contour>
      <point x="238" y="-15" type="curve" smooth="yes"/>
      <point x="406" y="-15"/>
      <point x="530" y="86"/>
      <point x="530" y="224" type="curve" smooth="yes"/>
      <point x="530" y="304"/>
      <point x="480" y="359"/>
      <point x="402" y="370" type="curve"/>
      <point x="401" y="363" type="line"/>
      <point x="489" y="383"/>
      <point x="550" y="457"/>
      <point x="550" y="545" type="curve" smooth="yes"/>
      <point x="550" y="643"/>
      <point x="467" y="707"/>
      <point x="341" y="707" type="curve" smooth="yes"/>
      <point x="208" y="707"/>
      <point x="99" y="636"/>
      <point x="74" y="543" type="curve"/>
      <point x="193" y="502" type="line"/>
      <point x="212" y="568"/>
      <point x="263" y="608"/>
      <point x="323" y="608" type="curve" smooth="yes"/>
      <point x="378" y="608"/>
      <point x="410" y="577"/>
      <point x="410" y="528" type="curve" smooth="yes"/>
      <point x="410" y="458"/>
      <point x="360" y="407"/>
      <point x="292" y="407" type="curve" smooth="yes"/>
      <point x="222" y="407" type="line"/>
      <point x="210" y="322" type="line"/>
      <point x="287" y="322" type="line" smooth="yes"/>
      <point x="352" y="322"/>
      <point x="391" y="284"/>
      <point x="391" y="225" type="curve" smooth="yes"/>
      <point x="391" y="143"/>
      <point x="334" y="86"/>
      <point x="254" y="86" type="curve" smooth="yes"/>
      <point x="179" y="86"/>
      <point x="141" y="137"/>
      <point x="145" y="208" type="curve"/>
      <point x="3" y="179" type="line"/>
      <point x="-2" y="63"/>
      <point x="90" y="-15"/>
    </contour>
  </outline>
</glyph>
<glyph name="four" format="2">
  <advance width="579"/>
  <unicode hex="0034"/>
  <outline>
    <contour>
      <point x="305" y="0" type="line"/>
      <point x="441" y="0" type="line"/>
      <point x="538" y="692" type="line"/>
      <point x="417" y="692" type="line"/>
      <point x="9" y="246" type="line"/>
      <point x="-5" y="149" type="line"/>
      <point x="551" y="149" type="line"/>
      <point x="566" y="257" type="line"/>
      <point x="124" y="257" type="line"/>
      <point x="131" y="244" type="line"/>
      <point x="394" y="535" type="line"/>
      <point x="381" y="540" type="line"/>
    </contour>
  </outline>
</glyph>
<glyph name="five" format="2">
  <advance width="582"/>
  <unicode hex="0035"/>
  <outline>
    <contour>
      <point x="258" y="-15" type="curve" smooth="yes"/>
      <point x="428" y="-15"/>
      <point x="553" y="103"/>
      <point x="553" y="266" type="curve" smooth="yes"/>
      <point x="553" y="383"/>
      <point x="471" y="458"/>
      <point x="347" y="458" type="curve" smooth="yes"/>
      <point x="254" y="458"/>
      <point x="177" y="420"/>
      <point x="146" y="361" type="curve"/>
      <point x="187" y="361" type="line"/>
      <point x="254" y="586" type="line"/>
      <point x="560" y="586" type="line"/>
      <point x="576" y="693" type="line"/>
      <point x="161" y="693" type="line"/>
      <point x="59" y="313" type="line"/>
      <point x="169" y="287" type="line"/>
      <point x="196" y="325"/>
      <point x="243" y="350"/>
      <point x="304" y="350" type="curve" smooth="yes"/>
      <point x="370" y="350"/>
      <point x="411" y="310"/>
      <point x="411" y="246" type="curve" smooth="yes"/>
      <point x="411" y="158"/>
      <point x="353" y="97"/>
      <point x="269" y="97" type="curve" smooth="yes"/>
      <point x="204" y="97"/>
      <point x="162" y="136"/>
      <point x="164" y="195" type="curve"/>
      <point x="27" y="177" type="line"/>
      <point x="26" y="63"/>
      <point x="116" y="-15"/>
    </contour>
  </outline>
</glyph>
<glyph name="six" format="2">
  <advance width="610"/>
  <unicode hex="0036"/>
  <outline>
    <contour>
      <point x="289" y="-15" type="curve" smooth="yes"/>
      <point x="449" y="-10"/>
      <point x="577" y="105"/>
      <point x="577" y="260" type="curve" smooth="yes"/>
      <point x="577" y="378"/>
      <point x="493" y="451"/>
      <point x="363" y="451" type="curve" smooth="yes"/>
      <point x="260" y="451"/>
      <point x="172" y="405"/>
      <point x="143" y="333" type="curve"/>
      <point x="169" y="334" type="line"/>
      <point x="187" y="492"/>
      <point x="263" y="601"/>
      <point x="374" y="601" type="curve" smooth="yes"/>
      <point x="433" y="601"/>
      <point x="472" y="569"/>
      <point x="479" y="511" type="curve"/>
      <point x="598" y="555" type="line"/>
      <point x="582" y="645"/>
      <point x="499" y="704"/>
      <point x="391" y="704" type="curve" smooth="yes"/>
      <point x="215" y="704"/>
      <point x="81" y="562"/>
      <point x="49" y="340" type="curve" smooth="yes"/>
      <point x="19" y="138"/>
      <point x="87" y="-22"/>
    </contour>
    <contour>
      <point x="289" y="80" type="curve" smooth="yes"/>
      <point x="221" y="80"/>
      <point x="179" y="125"/>
      <point x="179" y="195" type="curve" smooth="yes"/>
      <point x="179" y="290"/>
      <point x="241" y="358"/>
      <point x="329" y="358" type="curve" smooth="yes"/>
      <point x="396" y="358"/>
      <point x="438" y="314"/>
      <point x="438" y="245" type="curve" smooth="yes"/>
      <point x="438" y="152"/>
      <point x="374" y="80"/>
    </contour>
  </outline>
</glyph>
<glyph name="seven" format="2">
  <advance width="526"/>
  <unicode hex="0037"/>
  <outline>
    <contour>
      <point x="89" y="0" type="curve"/>
      <point x="230" y="0" type="line"/>
      <point x="284" y="255"/>
      <point x="400" y="469"/>
      <point x="564" y="607" type="curve"/>
      <point x="576" y="693" type="line"/>
      <point x="65" y="693" type="line"/>
      <point x="50" y="585" type="line"/>
      <point x="405" y="585" type="line"/>
      <point x="402" y="593" type="line"/>
      <point x="256" y="447"/>
      <point x="134" y="221"/>
    </contour>
  </outline>
</glyph>
<glyph name="eight" format="2">
  <advance width="622"/>
  <unicode hex="0038"/>
  <outline>
    <contour>
      <point x="271" y="-13" type="curve" smooth="yes"/>
      <point x="450" y="-13"/>
      <point x="581" y="86"/>
      <point x="581" y="221" type="curve" smooth="yes"/>
      <point x="581" y="291"/>
      <point x="543" y="348"/>
      <point x="476" y="378" type="curve"/>
      <point x="475" y="370" type="line"/>
      <point x="549" y="397"/>
      <point x="600" y="461"/>
      <point x="600" y="542" type="curve" smooth="yes"/>
      <point x="600" y="641"/>
      <point x="512" y="707"/>
      <point x="372" y="707" type="curve" smooth="yes"/>
      <point x="210" y="707"/>
      <point x="91" y="616"/>
      <point x="91" y="494" type="curve" smooth="yes"/>
      <point x="91" y="438"/>
      <point x="121" y="393"/>
      <point x="177" y="370" type="curve"/>
      <point x="178" y="378" type="line"/>
      <point x="81" y="340"/>
      <point x="19" y="257"/>
      <point x="19" y="167" type="curve" smooth="yes"/>
      <point x="19" y="59"/>
      <point x="118" y="-13"/>
    </contour>
    <contour>
      <point x="286" y="91" type="curve" smooth="yes"/>
      <point x="209" y="91"/>
      <point x="163" y="130"/>
      <point x="163" y="192" type="curve" smooth="yes"/>
      <point x="163" y="274"/>
      <point x="228" y="331"/>
      <point x="319" y="331" type="curve" smooth="yes"/>
      <point x="395" y="331"/>
      <point x="442" y="293"/>
      <point x="442" y="231" type="curve" smooth="yes"/>
      <point x="442" y="149"/>
      <point x="377" y="91"/>
    </contour>
    <contour>
      <point x="331" y="413" type="curve" smooth="yes"/>
      <point x="263" y="413"/>
      <point x="222" y="444"/>
      <point x="222" y="495" type="curve" smooth="yes"/>
      <point x="222" y="560"/>
      <point x="279" y="605"/>
      <point x="358" y="605" type="curve" smooth="yes"/>
      <point x="424" y="605"/>
      <point x="466" y="573"/>
      <point x="466" y="523" type="curve" smooth="yes"/>
      <point x="466" y="458"/>
      <point x="410" y="413"/>
    </contour>
  </outline>
</glyph>
<glyph name="nine" format="2">
  <advance width="606"/>
  <unicode hex="0039"/>
  <outline>
    <contour>
      <point x="238" y="-16" type="curve" smooth="yes"/>
      <point x="437" y="-16"/>
      <point x="583" y="172"/>
      <point x="583" y="430" type="curve" smooth="yes"/>
      <point x="583" y="585"/>
      <point x="514" y="703"/>
      <point x="346" y="703" type="curve" smooth="yes"/>
      <point x="179" y="703"/>
      <point x="52" y="588"/>
      <point x="52" y="435" type="curve" smooth="yes"/>
      <point x="52" y="320"/>
      <point x="135" y="251"/>
      <point x="255" y="251" type="curve" smooth="yes"/>
      <point x="349" y="251"/>
      <point x="418" y="282"/>
      <point x="461" y="341" type="curve"/>
      <point x="453" y="341" type="line"/>
      <point x="432" y="194"/>
      <point x="366" y="87"/>
      <point x="256" y="87" type="curve" smooth="yes"/>
      <point x="191" y="87"/>
      <point x="145" y="118"/>
      <point x="135" y="176" type="curve"/>
      <point x="16" y="131" type="line"/>
      <point x="35" y="40"/>
      <point x="127" y="-16"/>
    </contour>
    <contour>
      <point x="294" y="345" type="curve" smooth="yes"/>
      <point x="227" y="345"/>
      <point x="186" y="385"/>
      <point x="186" y="452" type="curve" smooth="yes"/>
      <point x="186" y="542"/>
      <point x="250" y="608"/>
      <point x="337" y="608" type="curve" smooth="yes"/>
      <point x="403" y="608"/>
      <point x="445" y="562"/>
      <point x="445" y="497" type="curve" smooth="yes"/>
      <point x="445" y="408"/>
      <point x="383" y="345"/>
    </contour>
  </outline>
</glyph>
<glyph name="equal" format="2">
  <advance width="686"/>
  <unicode hex="003D"/>
  <outline>
    <contour>
      <point x="92" y="142" type="line"/>
      <point x="558" y="142" type="line"/>
      <point x="573" y="252" type="line"/>
      <point x="107" y="252" type="line"/>
    </contour>
    <contour>
      <point x="117" y="319" type="line"/>
      <point x="583" y="319" type="line"/>
      <point x="598" y="429" type="line"/>
      <point x="132" y="429" type="line"/>
    </contour>
  </outline>
</glyph>
<glyph name="greater" format="2">
  <advance width="623"/>
  <unicode hex="003E"/>
  <outline>
    <contour>
      <point x="93" y="-6" type="line"/>
      <point x="589" y="220" type="line"/>
      <point x="606" y="346" type="line"/>
      <point x="175" y="574" type="line"/>
      <point x="156" y="444" type="line"/>
      <point x="513" y="264" type="line"/>
      <point x="519" y="304" type="line"/>
      <point x="112" y="128" type="line"/>
    </contour>
  </outline>
</glyph>
<glyph name="question" format="2">
  <advance width="488"/>
  <unicode hex="003F"/>
  <outline>
    <contour>
      <point x="172" y="220" type="line"/>
      <point x="300" y="220" type="line"/>
      <point x="300" y="223" type="line" smooth="yes"/>
      <point x="319" y="361"/>
      <point x="490" y="370"/>
      <point x="512" y="514" type="curve" smooth="yes"/>
      <point x="530" y="633"/>
      <point x="444" y="707"/>
      <point x="311" y="707" type="curve" smooth="yes"/>
      <point x="189" y="707"/>
      <point x="81" y="640"/>
      <point x="42" y="532" type="curve"/>
      <point x="158" y="490" type="line"/>
      <point x="177" y="559"/>
      <point x="228" y="603"/>
      <point x="290" y="603" type="curve" smooth="yes"/>
      <point x="343" y="603"/>
      <point x="375" y="574"/>
      <point x="375" y="527" type="curve" smooth="yes"/>
      <point x="375" y="398"/>
      <point x="216" y="418"/>
      <point x="177" y="242" type="curve" smooth="yes"/>
    </contour>
    <component base="period" xOffset="119"/>
  </outline>
</glyph>
<glyph name="at" format="2">
  <advance width="1048"/>
  <unicode hex="0040"/>
  <outline>
    <contour>
      <point x="494" y="-215" type="curve" smooth="yes"/>
      <point x="623" y="-215"/>
      <point x="742" y="-180"/>
      <point x="810" y="-130" type="curve"/>
      <point x="762" y="-31" type="line"/>
      <point x="704" y="-70"/>
      <point x="610" y="-96"/>
      <point x="507" y="-96" type="curve" smooth="yes"/>
      <point x="325" y="-96"/>
      <point x="215" y="10"/>
      <point x="215" y="184" type="curve" smooth="yes"/>
      <point x="215" y="433"/>
      <point x="380" y="601"/>
      <point x="625" y="601" type="curve" smooth="yes"/>
      <point x="797" y="601"/>
      <point x="912" y="527"/>
      <point x="912" y="364" type="curve" smooth="yes"/>
      <point x="912" y="218"/>
      <point x="857" y="120"/>
      <point x="773" y="120" type="curve" smooth="yes"/>
      <point x="730" y="120"/>
      <point x="717" y="143"/>
      <point x="734" y="191" type="curve" smooth="yes"/>
      <point x="838" y="484" type="line"/>
      <point x="709" y="484" type="line"/>
      <point x="654" y="328" type="line"/>
      <point x="690" y="328" type="line"/>
      <point x="720" y="421"/>
      <point x="662" y="490"/>
      <point x="594" y="492" type="curve" smooth="yes"/>
      <point x="457" y="496"/>
      <point x="305" y="324"/>
      <point x="305" y="162" type="curve" smooth="yes"/>
      <point x="305" y="73"/>
      <point x="359" y="19"/>
      <point x="445" y="19" type="curve" smooth="yes"/>
      <point x="527" y="19"/>
      <point x="613" y="73"/>
      <point x="646" y="160" type="curve"/>
      <point x="617" y="169" type="line"/>
      <point x="589" y="79"/>
      <point x="636" y="6"/>
      <point x="736" y="6" type="curve" smooth="yes"/>
      <point x="910" y="6"/>
      <point x="1040" y="164"/>
      <point x="1040" y="375" type="curve" smooth="yes"/>
      <point x="1040" y="583"/>
      <point x="883" y="718"/>
      <point x="640" y="718" type="curve" smooth="yes"/>
      <point x="324" y="718"/>
      <point x="84" y="482"/>
      <point x="84" y="170" type="curve" smooth="yes"/>
      <point x="84" y="-62"/>
      <point x="242" y="-215"/>
    </contour>
    <contour>
      <point x="491" y="131" type="curve" smooth="yes"/>
      <point x="457" y="131"/>
      <point x="441" y="145"/>
      <point x="441" y="181" type="curve" smooth="yes"/>
      <point x="441" y="281"/>
      <point x="516" y="381"/>
      <point x="592" y="381" type="curve" smooth="yes"/>
      <point x="628" y="381"/>
      <point x="646" y="366"/>
      <point x="646" y="329" type="curve" smooth="yes"/>
      <point x="646" y="230"/>
      <point x="569" y="131"/>
    </contour>
  </outline>
</glyph>
<glyph name="A" format="2">
  <advance width="650"/>
  <unicode hex="0041"/>
  <anchor x="599" y="8" name="ogonek"/>
  <anchor x="380" y="692" name="top"/>
  <outline>
    <contour>
      <point x="-34" y="0" type="line"/>
      <point x="108" y="0" type="line"/>
      <point x="363" y="552" type="line"/>
      <point x="355" y="552" type="line"/>
      <point x="454" y="0" type="line"/>
      <point x="606" y="0" type="line"/>
      <point x="457" y="692" type="line"/>
      <point x="303" y="692" type="line"/>
    </contour>
    <contour>
      <point x="170" y="166" type="line"/>
      <point x="429" y="166" type="line"/>
      <point x="444" y="268" type="line"/>
      <point x="185" y="268" type="line"/>
    </contour>
  </outline>
</glyph>
<glyph name="B" format="2">
  <advance width="629"/>
  <unicode hex="0042"/>
  <outline>
    <contour>
      <point x="36" y="0" type="line"/>
      <point x="347" y="0" type="line" smooth="yes"/>
      <point x="483" y="0"/>
      <point x="587" y="94"/>
      <point x="587" y="219" type="curve" smooth="yes"/>
      <point x="587" y="310"/>
      <point x="522" y="368"/>
      <point x="420" y="368" type="curve"/>
      <point x="419" y="361" type="line"/>
      <point x="524" y="367"/>
      <point x="605" y="444"/>
      <point x="605" y="548" type="curve" smooth="yes"/>
      <point x="605" y="637"/>
      <point x="535" y="692"/>
      <point x="430" y="692" type="curve" smooth="yes"/>
      <point x="131" y="692" type="line"/>
    </contour>
    <contour>
      <point x="192" y="100" type="line"/>
      <point x="259" y="594" type="line"/>
      <point x="251" y="586" type="line"/>
      <point x="382" y="586" type="line" smooth="yes"/>
      <point x="426" y="586"/>
      <point x="455" y="559"/>
      <point x="455" y="515" type="curve" smooth="yes"/>
      <point x="455" y="454"/>
      <point x="415" y="408"/>
      <point x="359" y="408" type="curve" smooth="yes"/>
      <point x="226" y="408" type="line"/>
      <point x="212" y="304" type="line"/>
      <point x="358" y="304" type="line" smooth="yes"/>
      <point x="405" y="304"/>
      <point x="436" y="274"/>
      <point x="436" y="225" type="curve" smooth="yes"/>
      <point x="436" y="156"/>
      <point x="391" y="108"/>
      <point x="329" y="108" type="curve" smooth="yes"/>
      <point x="185" y="108" type="line"/>
    </contour>
  </outline>
</glyph>
<glyph name="C" format="2">
  <advance width="665"/>
  <unicode hex="0043"/>
  <anchor x="321" y="0" name="bottom"/>
  <anchor x="404" y="692" name="top"/>
  <outline>
    <contour>
      <point x="308" y="-14" type="curve" smooth="yes"/>
      <point x="463" y="-14"/>
      <point x="595" y="84"/>
      <point x="637" y="228" type="curve"/>
      <point x="498" y="276" type="line"/>
      <point x="472" y="161"/>
      <point x="401" y="96"/>
      <point x="322" y="96" type="curve" smooth="yes"/>
      <point x="239" y="96"/>
      <point x="191" y="168"/>
      <point x="191" y="282" type="curve" smooth="yes"/>
      <point x="191" y="459"/>
      <point x="278" y="598"/>
      <point x="391" y="598" type="curve" smooth="yes"/>
      <point x="467" y="598"/>
      <point x="515" y="540"/>
      <point x="514" y="448" type="curve"/>
      <point x="661" y="488" type="line"/>
      <point x="650" y="621"/>
      <point x="551" y="706"/>
      <point x="407" y="706" type="curve" smooth="yes"/>
      <point x="190" y="706"/>
      <point x="39" y="522"/>
      <point x="39" y="280" type="curve" smooth="yes"/>
      <point x="39" y="104"/>
      <point x="142" y="-14"/>
    </contour>
  </outline>
</glyph>
<glyph name="D" format="2">
  <advance width="686"/>
  <unicode hex="0044"/>
  <anchor x="308" y="0" name="bottom"/>
  <anchor x="186" y="346" name="center"/>
  <anchor x="383" y="692" name="top"/>
  <outline>
    <contour>
      <point x="36" y="0" type="line"/>
      <point x="307" y="0" type="line" smooth="yes"/>
      <point x="517" y="0"/>
      <point x="668" y="178"/>
      <point x="668" y="410" type="curve" smooth="yes"/>
      <point x="668" y="579"/>
      <point x="568" y="692"/>
      <point x="401" y="692" type="curve" smooth="yes"/>
      <point x="131" y="692" type="line"/>
    </contour>
    <contour>
      <point x="193" y="102" type="line"/>
      <point x="260" y="592" type="line"/>
      <point x="252" y="584" type="line"/>
      <point x="369" y="584" type="line" smooth="yes"/>
      <point x="460" y="584"/>
      <point x="516" y="515"/>
      <point x="516" y="402" type="curve" smooth="yes"/>
      <point x="516" y="234"/>
      <point x="423" y="110"/>
      <point x="302" y="110" type="curve" smooth="yes"/>
      <point x="186" y="110" type="line"/>
    </contour>
  </outline>
</glyph>
<glyph name="E" format="2">
  <advance width="585"/>
  <unicode hex="0045"/>
  <anchor x="502" y="8" name="ogonek"/>
  <anchor x="366" y="692" name="top"/>
  <outline>
    <contour>
      <point x="36" y="0" type="line"/>
      <point x="509" y="0" type="line"/>
      <point x="524" y="108" type="line"/>
      <point x="187" y="108" type="line"/>
      <point x="195" y="100" type="line"/>
      <point x="263" y="593" type="line"/>
      <point x="253" y="585" type="line"/>
      <point x="584" y="585" type="line"/>
      <point x="599" y="692" type="line"/>
      <point x="131" y="692" type="line"/>
    </contour>
    <contour>
      <point x="214" y="303" type="line"/>
      <point x="516" y="303" type="line"/>
      <point x="530" y="409" type="line"/>
      <point x="228" y="409" type="line"/>
    </contour>
  </outline>
</glyph>
<glyph name="F" format="2">
  <advance width="548"/>
  <unicode hex="0046"/>
  <outline>
    <contour>
      <point x="36" y="0" type="line"/>
      <point x="180" y="0" type="line"/>
      <point x="262" y="592" type="line"/>
      <point x="253" y="584" type="line"/>
      <point x="578" y="584" type="line"/>
      <point x="593" y="692" type="line"/>
      <point x="131" y="692" type="line"/>
    </contour>
    <contour>
      <point x="213" y="296" type="line"/>
      <point x="488" y="296" type="line"/>
      <point x="503" y="404" type="line"/>
      <point x="228" y="404" type="line"/>
    </contour>
  </outline>
</glyph>
<glyph name="G" format="2">
  <advance width="685"/>
  <unicode hex="0047"/>
  <note>
Versione senza gamba?
</note>
  <anchor x="319" y="0" name="bottom"/>
  <anchor x="408" y="692" name="top"/>
  <outline>
    <contour>
      <point x="347" y="-14" type="curve" smooth="yes"/>
      <point x="436" y="-14"/>
      <point x="537" y="16"/>
      <point x="605" y="72" type="curve"/>
      <point x="647" y="380" type="line"/>
      <point x="339" y="380" type="line"/>
      <point x="325" y="280" type="line"/>
      <point x="508" y="280" type="line"/>
      <point x="488" y="138" type="line"/>
      <point x="458" y="110"/>
      <point x="412" y="98"/>
      <point x="368" y="98" type="curve" smooth="yes"/>
      <point x="254" y="98"/>
      <point x="188" y="179"/>
      <point x="188" y="311" type="curve" smooth="yes"/>
      <point x="188" y="471"/>
      <point x="275" y="600"/>
      <point x="388" y="600" type="curve" smooth="yes"/>
      <point x="460" y="600"/>
      <point x="513" y="548"/>
      <point x="514" y="460" type="curve"/>
      <point x="660" y="498" type="line"/>
      <point x="649" y="622"/>
      <point x="545" y="706"/>
      <point x="407" y="706" type="curve" smooth="yes"/>
      <point x="193" y="706"/>
      <point x="41" y="532"/>
      <point x="41" y="298" type="curve" smooth="yes"/>
      <point x="41" y="113"/>
      <point x="156" y="-14"/>
    </contour>
  </outline>
</glyph>
<glyph name="H" format="2">
  <advance width="701"/>
  <unicode hex="0048"/>
  <anchor x="312" y="0" name="bottom"/>
  <anchor x="385" y="519" name="center"/>
  <anchor x="408" y="692" name="top"/>
  <anchor x="80" y="692" name="topleft"/>
  <outline>
    <contour>
      <point x="447" y="0" type="line"/>
      <point x="591" y="0" type="line"/>
      <point x="685" y="692" type="line"/>
      <point x="541" y="692" type="line"/>
    </contour>
    <contour>
      <point x="36" y="0" type="line"/>
      <point x="180" y="0" type="line"/>
      <point x="275" y="692" type="line"/>
      <point x="131" y="692" type="line"/>
    </contour>
    <contour>
      <point x="214" y="306" type="line"/>
      <point x="496" y="306" type="line"/>
      <point x="511" y="414" type="line"/>
      <point x="229" y="414" type="line"/>
    </contour>
  </outline>
</glyph>
<glyph name="I" format="2">
  <advance width="288"/>
  <unicode hex="0049"/>
  <anchor x="170" y="7" name="ogonek"/>
  <anchor x="202" y="692" name="top"/>
  <outline>
    <contour>
      <point x="36" y="0" type="line"/>
      <point x="178" y="0" type="line"/>
      <point x="273" y="692" type="line"/>
      <point x="131" y="692" type="line"/>
    </contour>
  </outline>
</glyph>
<glyph name="J" format="2">
  <advance width="542"/>
  <unicode hex="004A"/>
  <anchor x="234" y="0" name="bottom"/>
  <anchor x="467" y="692" name="top"/>
  <outline>
    <contour>
      <point x="211" y="-14" type="curve" smooth="yes"/>
      <point x="343" y="-14"/>
      <point x="452" y="70"/>
      <point x="471" y="208" type="curve" smooth="yes"/>
      <point x="539" y="692" type="line"/>
      <point x="395" y="692" type="line"/>
      <point x="328" y="212" type="line" smooth="yes"/>
      <point x="319" y="145"/>
      <point x="280" y="102"/>
      <point x="225" y="102" type="curve" smooth="yes"/>
      <point x="159" y="102"/>
      <point x="130" y="160"/>
      <point x="147" y="260" type="curve"/>
      <point x="12" y="243" type="line"/>
      <point x="-12" y="76"/>
      <point x="65" y="-14"/>
    </contour>
  </outline>
</glyph>
<glyph name="K" format="2">
  <advance width="662"/>
  <unicode hex="004B"/>
  <anchor x="324" y="0" name="bottom"/>
  <anchor x="403" y="692" name="top"/>
  <outline>
    <contour>
      <point x="36" y="0" type="line"/>
      <point x="180" y="0" type="line"/>
      <point x="212" y="235" type="line"/>
      <point x="204" y="211" type="line"/>
      <point x="691" y="692" type="line"/>
      <point x="524" y="692" type="line"/>
      <point x="213" y="381" type="line"/>
      <point x="231" y="381" type="line"/>
      <point x="275" y="692" type="line"/>
      <point x="131" y="692" type="line"/>
    </contour>
    <contour>
      <point x="455" y="0" type="line"/>
      <point x="624" y="0" type="line"/>
      <point x="397" y="413" type="line"/>
      <point x="293" y="309" type="line"/>
    </contour>
  </outline>
</glyph>
<glyph name="L" format="2">
  <advance width="533"/>
  <unicode hex="004C"/>
  <anchor x="272" y="0" name="bottom"/>
  <anchor x="222" y="692" name="top"/>
  <anchor x="281" y="544" name="topright"/>
  <outline>
    <contour>
      <point x="36" y="0" type="line"/>
      <point x="180" y="0" type="line"/>
      <point x="275" y="692" type="line"/>
      <point x="131" y="692" type="line"/>
    </contour>
    <contour>
      <point x="172" y="0" type="line"/>
      <point x="480" y="0" type="line"/>
      <point x="496" y="114" type="line"/>
      <point x="188" y="114" type="line"/>
    </contour>
  </outline>
</glyph>
<glyph name="M" format="2">
  <advance width="851"/>
  <unicode hex="004D"/>
  <outline>
    <contour>
      <point x="36" y="0" type="line"/>
      <point x="157" y="0" type="line"/>
      <point x="230" y="543" type="line"/>
      <point x="221" y="543" type="line"/>
      <point x="336" y="0" type="line"/>
      <point x="438" y="0" type="line"/>
      <point x="694" y="543" type="line"/>
      <point x="678" y="543" type="line"/>
      <point x="605" y="0" type="line"/>
      <point x="741" y="0" type="line"/>
      <point x="836" y="692" type="line"/>
      <point x="657" y="692" type="line"/>
      <point x="422" y="200" type="line"/>
      <point x="426" y="200" type="line"/>
      <point x="320" y="692" type="line"/>
      <point x="131" y="692" type="line"/>
    </contour>
  </outline>
</glyph>
<glyph name="N" format="2">
  <advance width="707"/>
  <unicode hex="004E"/>
  <anchor x="324" y="0" name="bottom"/>
  <anchor x="411" y="692" name="top"/>
  <outline>
    <contour>
      <point x="36" y="0" type="line"/>
      <point x="168" y="0" type="line"/>
      <point x="237" y="508" type="line"/>
      <point x="230" y="508" type="line"/>
      <point x="448" y="0" type="line"/>
      <point x="597" y="0" type="line"/>
      <point x="693" y="692" type="line"/>
      <point x="561" y="692" type="line"/>
      <point x="495" y="201" type="line"/>
      <point x="501" y="201" type="line"/>
      <point x="289" y="692" type="line"/>
      <point x="131" y="692" type="line"/>
    </contour>
  </outline>
</glyph>
<glyph name="O" format="2">
  <advance width="706"/>
  <unicode hex="004F"/>
  <anchor x="364" y="346" name="center"/>
  <anchor x="412" y="692" name="top"/>
  <outline>
    <contour>
      <point x="313" y="-14" type="curve" smooth="yes"/>
      <point x="537" y="-14"/>
      <point x="689" y="171"/>
      <point x="689" y="415" type="curve" smooth="yes"/>
      <point x="689" y="591"/>
      <point x="584" y="706"/>
      <point x="414" y="706" type="curve" smooth="yes"/>
      <point x="190" y="706"/>
      <point x="38" y="521"/>
      <point x="38" y="277" type="curve" smooth="yes"/>
      <point x="38" y="100"/>
      <point x="143" y="-14"/>
    </contour>
    <contour>
      <point x="327" y="97" type="curve" smooth="yes"/>
      <point x="241" y="97"/>
      <point x="189" y="166"/>
      <point x="189" y="281" type="curve" smooth="yes"/>
      <point x="189" y="460"/>
      <point x="285" y="597"/>
      <point x="400" y="597" type="curve" smooth="yes"/>
      <point x="487" y="597"/>
      <point x="538" y="527"/>
      <point x="538" y="413" type="curve" smooth="yes"/>
      <point x="538" y="234"/>
      <point x="442" y="97"/>
    </contour>
  </outline>
</glyph>
<glyph name="P" format="2">
  <advance width="603"/>
  <unicode hex="0050"/>
  <outline>
    <contour>
      <point x="36" y="0" type="line"/>
      <point x="180" y="0" type="line"/>
      <point x="262" y="592" type="line"/>
      <point x="253" y="584" type="line"/>
      <point x="375" y="584" type="line" smooth="yes"/>
      <point x="430" y="584"/>
      <point x="464" y="553"/>
      <point x="464" y="502" type="curve" smooth="yes"/>
      <point x="464" y="427"/>
      <point x="415" y="378"/>
      <point x="344" y="378" type="curve" smooth="yes"/>
      <point x="224" y="378" type="line"/>
      <point x="209" y="270" type="line"/>
      <point x="337" y="270" type="line" smooth="yes"/>
      <point x="499" y="270"/>
      <point x="615" y="372"/>
      <point x="615" y="517" type="curve" smooth="yes"/>
      <point x="615" y="624"/>
      <point x="533" y="692"/>
      <point x="398" y="692" type="curve" smooth="yes"/>
      <point x="131" y="692" type="line"/>
    </contour>
  </outline>
</glyph>
<glyph name="Q" format="2">
  <advance width="710"/>
  <unicode hex="0051"/>
  <outline>
    <contour>
      <point x="466" y="-152" type="curve"/>
      <point x="626" y="-96" type="line"/>
      <point x="607" y="-11"/>
      <point x="548" y="38"/>
      <point x="482" y="48" type="curve"/>
      <point x="485" y="38" type="line"/>
      <point x="610" y="98"/>
      <point x="690" y="251"/>
      <point x="690" y="416" type="curve" smooth="yes"/>
      <point x="690" y="591"/>
      <point x="582" y="706"/>
      <point x="414" y="706" type="curve" smooth="yes"/>
      <point x="192" y="706"/>
      <point x="39" y="520"/>
      <point x="39" y="281" type="curve" smooth="yes"/>
      <point x="39" y="105"/>
      <point x="149" y="-12"/>
      <point x="317" y="-12" type="curve" smooth="yes"/>
      <point x="322" y="-12" type="line" smooth="yes"/>
      <point x="406" y="-12"/>
      <point x="442" y="-66"/>
    </contour>
    <contour>
      <point x="330" y="96" type="curve" smooth="yes"/>
      <point x="243" y="96"/>
      <point x="191" y="168"/>
      <point x="191" y="284" type="curve" smooth="yes"/>
      <point x="191" y="460"/>
      <point x="282" y="598"/>
      <point x="399" y="598" type="curve" smooth="yes"/>
      <point x="487" y="598"/>
      <point x="537" y="524"/>
      <point x="537" y="410" type="curve" smooth="yes"/>
      <point x="537" y="234"/>
      <point x="447" y="96"/>
    </contour>
  </outline>
</glyph>
<glyph name="R" format="2">
  <advance width="664"/>
  <unicode hex="0052"/>
  <anchor x="325" y="0" name="bottom"/>
  <anchor x="389" y="692" name="top"/>
  <outline>
    <contour>
      <point x="36" y="0" type="line"/>
      <point x="180" y="0" type="line"/>
      <point x="262" y="593" type="line"/>
      <point x="253" y="585" type="line"/>
      <point x="389" y="585" type="line" smooth="yes"/>
      <point x="444" y="585"/>
      <point x="477" y="557"/>
      <point x="477" y="510" type="curve" smooth="yes"/>
      <point x="477" y="445"/>
      <point x="430" y="400"/>
      <point x="364" y="400" type="curve" smooth="yes"/>
      <point x="227" y="400" type="line"/>
      <point x="212" y="294" type="line"/>
      <point x="322" y="294" type="line" smooth="yes"/>
      <point x="359" y="294"/>
      <point x="389" y="270"/>
      <point x="397" y="236" type="curve" smooth="yes"/>
      <point x="452" y="0" type="line"/>
      <point x="614" y="0" type="line"/>
      <point x="534" y="272" type="line" smooth="yes"/>
      <point x="525" y="304"/>
      <point x="496" y="328"/>
      <point x="465" y="328" type="curve"/>
      <point x="464" y="321" type="line"/>
      <point x="558" y="340"/>
      <point x="628" y="425"/>
      <point x="628" y="530" type="curve" smooth="yes"/>
      <point x="628" y="630"/>
      <point x="553" y="692"/>
      <point x="431" y="692" type="curve" smooth="yes"/>
      <point x="131" y="692" type="line"/>
    </contour>
  </outline>
</glyph>
<glyph name="S" format="2">
  <advance width="625"/>
  <unicode hex="0053"/>
  <note>
Falls to the right
</note>
  <anchor x="279" y="0" name="bottom"/>
  <anchor x="388" y="692" name="top"/>
  <outline>
    <contour>
      <point x="286" y="-14" type="curve" smooth="yes"/>
      <point x="462" y="-14"/>
      <point x="576" y="77"/>
      <point x="576" y="224" type="curve" smooth="yes"/>
      <point x="576" y="457"/>
      <point x="236" y="365"/>
      <point x="236" y="504" type="curve" smooth="yes"/>
      <point x="236" y="565"/>
      <point x="293" y="605"/>
      <point x="368" y="605" type="curve" smooth="yes"/>
      <point x="435" y="605"/>
      <point x="473" y="567"/>
      <point x="478" y="502" type="curve"/>
      <point x="621" y="542" type="line"/>
      <point x="602" y="650"/>
      <point x="510" y="706"/>
      <point x="383" y="706" type="curve" smooth="yes"/>
      <point x="217" y="706"/>
      <point x="93" y="622"/>
      <point x="93" y="481" type="curve" smooth="yes"/>
      <point x="93" y="252"/>
      <point x="432" y="348"/>
      <point x="432" y="201" type="curve" smooth="yes"/>
      <point x="432" y="132"/>
      <point x="374" y="87"/>
      <point x="292" y="87" type="curve" smooth="yes"/>
      <point x="214" y="87"/>
      <point x="165" y="135"/>
      <point x="163" y="216" type="curve"/>
      <point x="23" y="176" type="line"/>
      <point x="37" y="54"/>
      <point x="139" y="-14"/>
    </contour>
  </outline>
</glyph>
<glyph name="T" format="2">
  <advance width="555"/>
  <unicode hex="0054"/>
  <anchor x="241" y="0" name="bottom"/>
  <anchor x="291" y="364" name="center"/>
  <anchor x="336" y="692" name="top"/>
  <outline>
    <contour>
      <point x="170" y="0" type="line"/>
      <point x="314" y="0" type="line"/>
      <point x="394" y="592" type="line"/>
      <point x="251" y="592" type="line"/>
    </contour>
    <contour>
      <point x="50" y="584" type="line"/>
      <point x="593" y="584" type="line"/>
      <point x="608" y="692" type="line"/>
      <point x="65" y="692" type="line"/>
    </contour>
  </outline>
</glyph>
<glyph name="U" format="2">
  <advance width="675"/>
  <unicode hex="0055"/>
  <anchor x="405" y="8" name="ogonek"/>
  <anchor x="397" y="692" name="top"/>
  <outline>
    <contour>
      <point x="298" y="-14" type="curve" smooth="yes"/>
      <point x="460" y="-14"/>
      <point x="591" y="91"/>
      <point x="613" y="256" type="curve" smooth="yes"/>
      <point x="672" y="692" type="line"/>
      <point x="538" y="692" type="line"/>
      <point x="478" y="252" type="line" smooth="yes"/>
      <point x="465" y="156"/>
      <point x="397" y="104"/>
      <point x="320" y="104" type="curve" smooth="yes"/>
      <point x="237" y="104"/>
      <point x="189" y="159"/>
      <point x="202" y="252" type="curve" smooth="yes"/>
      <point x="263" y="692" type="line"/>
      <point x="119" y="692" type="line"/>
      <point x="59" y="256" type="line" smooth="yes"/>
      <point x="36" y="91"/>
      <point x="131" y="-14"/>
    </contour>
  </outline>
</glyph>
<glyph name="V" format="2">
  <advance width="629"/>
  <unicode hex="0056"/>
  <outline>
    <contour>
      <point x="203" y="0" type="line"/>
      <point x="359" y="0" type="line"/>
      <point x="682" y="692" type="line"/>
      <point x="538" y="692" type="line"/>
      <point x="297" y="160" type="line"/>
      <point x="310" y="160" type="line"/>
      <point x="214" y="692" type="line"/>
      <point x="69" y="692" type="line"/>
    </contour>
  </outline>
</glyph>
<glyph name="W" format="2">
  <advance width="893"/>
  <unicode hex="0057"/>
  <anchor x="411" y="0" name="bottom"/>
  <anchor x="505" y="692" name="top"/>
  <outline>
    <contour>
      <point x="147" y="0" type="line"/>
      <point x="303" y="0" type="line"/>
      <point x="488" y="524" type="line"/>
      <point x="481" y="524" type="line"/>
      <point x="526" y="0" type="line"/>
      <point x="682" y="0" type="line"/>
      <point x="948" y="692" type="line"/>
      <point x="819" y="692" type="line"/>
      <point x="632" y="170" type="line"/>
      <point x="640" y="170" type="line"/>
      <point x="591" y="692" type="line"/>
      <point x="439" y="692" type="line"/>
      <point x="258" y="172" type="line"/>
      <point x="266" y="172" type="line"/>
      <point x="213" y="692" type="line"/>
      <point x="65" y="692" type="line"/>
    </contour>
  </outline>
</glyph>
<glyph name="X" format="2">
  <advance width="623"/>
  <unicode hex="0058"/>
  <outline>
    <contour>
      <point x="429" y="0" type="line"/>
      <point x="588" y="0" type="line"/>
      <point x="232" y="692" type="line"/>
      <point x="78" y="692" type="line"/>
    </contour>
    <contour>
      <point x="-41" y="0" type="line"/>
      <point x="109" y="0" type="line"/>
      <point x="313" y="257" type="line"/>
      <point x="249" y="361" type="line"/>
    </contour>
    <contour>
      <point x="400" y="355" type="line"/>
      <point x="667" y="692" type="line"/>
      <point x="516" y="692" type="line"/>
      <point x="338" y="461" type="line"/>
    </contour>
  </outline>
</glyph>
<glyph name="Y" format="2">
  <advance width="597"/>
  <unicode hex="0059"/>
  <anchor x="365" y="692" name="top"/>
  <outline>
    <contour>
      <point x="197" y="0" type="line"/>
      <point x="338" y="0" type="line"/>
      <point x="377" y="272" type="line"/>
      <point x="656" y="692" type="line"/>
      <point x="514" y="692" type="line"/>
      <point x="313" y="380" type="line"/>
      <point x="330" y="380" type="line"/>
      <point x="212" y="692" type="line"/>
      <point x="59" y="692" type="line"/>
      <point x="234" y="273" type="line"/>
    </contour>
  </outline>
</glyph>
<glyph name="Z" format="2">
  <advance width="559"/>
  <unicode hex="005A"/>
  <anchor x="242" y="0" name="bottom"/>
  <anchor x="291" y="346" name="center"/>
  <anchor x="336" y="692" name="top"/>
  <outline>
    <contour>
      <point x="-14" y="0" type="line"/>
      <point x="497" y="0" type="line"/>
      <point x="512" y="108" type="line"/>
      <point x="166" y="108" type="line"/>
      <point x="169" y="100" type="line"/>
      <point x="579" y="608" type="line"/>
      <point x="591" y="692" type="line"/>
      <point x="93" y="692" type="line"/>
      <point x="78" y="585" type="line"/>
      <point x="413" y="585" type="line"/>
      <point x="410" y="593" type="line"/>
      <point x="-2" y="86" type="line"/>
    </contour>
  </outline>
</glyph>
<glyph name="bracketleft" format="2">
  <advance width="333"/>
  <unicode hex="005B"/>
  <outline>
    <contour>
      <point x="-9" y="-218" type="line"/>
      <point x="229" y="-218" type="line"/>
      <point x="242" y="-128" type="line"/>
      <point x="128" y="-128" type="line"/>
      <point x="135" y="-136" type="line"/>
      <point x="239" y="610" type="line"/>
      <point x="230" y="603" type="line"/>
      <point x="343" y="603" type="line"/>
      <point x="356" y="692" type="line"/>
      <point x="119" y="692" type="line"/>
    </contour>
  </outline>
</glyph>
<glyph name="asciicircum" format="2">
  <advance width="624"/>
  <unicode hex="005E"/>
  <outline>
    <contour>
      <point x="65" y="260" type="line"/>
      <point x="189" y="260" type="line"/>
      <point x="397" y="644" type="line"/>
      <point x="329" y="644" type="line"/>
      <point x="429" y="260" type="line"/>
      <point x="555" y="260" type="line"/>
      <point x="424" y="724" type="line"/>
      <point x="330" y="724" type="line"/>
    </contour>
  </outline>
</glyph>
<glyph name="a" format="2">
  <advance width="569"/>
  <unicode hex="0061"/>
  <anchor x="468" y="7" name="ogonek"/>
  <anchor x="319" y="533" name="top"/>
  <outline>
    <contour>
      <point x="169" y="-15" type="curve" smooth="yes"/>
      <point x="269" y="-15"/>
      <point x="358" y="51"/>
      <point x="380" y="149" type="curve"/>
      <point x="363" y="149" type="line"/>
      <point x="351" y="74"/>
      <point x="353" y="25"/>
      <point x="356" y="0" type="curve"/>
      <point x="481" y="0" type="line"/>
      <point x="478" y="37"/>
      <point x="479" y="70"/>
      <point x="486" y="125" type="curve" smooth="yes"/>
      <point x="516" y="351" type="line" smooth="yes"/>
      <point x="534" y="492"/>
      <point x="460" y="560"/>
      <point x="321" y="560" type="curve" smooth="yes"/>
      <point x="188" y="560"/>
      <point x="103" y="496"/>
      <point x="59" y="413" type="curve"/>
      <point x="176" y="372" type="line"/>
      <point x="205" y="435"/>
      <point x="255" y="471"/>
      <point x="308" y="471" type="curve" smooth="yes"/>
      <point x="363" y="471"/>
      <point x="400" y="433"/>
      <point x="391" y="372" type="curve" smooth="yes"/>
      <point x="379" y="288" type="line" smooth="yes"/>
      <point x="362" y="169"/>
      <point x="298" y="80"/>
      <point x="222" y="80" type="curve" smooth="yes"/>
      <point x="183" y="80"/>
      <point x="157" y="104"/>
      <point x="157" y="141" type="curve" smooth="yes"/>
      <point x="157" y="202"/>
      <point x="211" y="244"/>
      <point x="300" y="258" type="curve" smooth="yes"/>
      <point x="383" y="271" type="line"/>
      <point x="395" y="352" type="line"/>
      <point x="278" y="336" type="line" smooth="yes"/>
      <point x="117" y="314"/>
      <point x="24" y="230"/>
      <point x="24" y="116" type="curve" smooth="yes"/>
      <point x="24" y="37"/>
      <point x="82" y="-15"/>
    </contour>
  </outline>
</glyph>
<glyph name="b" format="2">
  <advance width="599"/>
  <unicode hex="0062"/>
  <outline>
    <contour>
      <point x="315" y="-14" type="curve" smooth="yes"/>
      <point x="460" y="-14"/>
      <point x="577" y="139"/>
      <point x="577" y="335" type="curve" smooth="yes"/>
      <point x="577" y="469"/>
      <point x="507" y="556"/>
      <point x="395" y="556" type="curve" smooth="yes"/>
      <point x="311" y="556"/>
      <point x="233" y="507"/>
      <point x="205" y="430" type="curve"/>
      <point x="213" y="430" type="line"/>
      <point x="252" y="713" type="line"/>
      <point x="122" y="713" type="line"/>
      <point x="24" y="0" type="line"/>
      <point x="152" y="0" type="line"/>
      <point x="166" y="104" type="line"/>
      <point x="159" y="104" type="line"/>
      <point x="167" y="35"/>
      <point x="231" y="-14"/>
    </contour>
    <contour>
      <point x="285" y="78" type="curve" smooth="yes"/>
      <point x="223" y="78"/>
      <point x="187" y="132"/>
      <point x="187" y="219" type="curve" smooth="yes"/>
      <point x="187" y="357"/>
      <point x="254" y="465"/>
      <point x="340" y="465" type="curve" smooth="yes"/>
      <point x="403" y="465"/>
      <point x="439" y="410"/>
      <point x="439" y="323" type="curve" smooth="yes"/>
      <point x="439" y="186"/>
      <point x="371" y="78"/>
    </contour>
  </outline>
</glyph>
<glyph name="c" format="2">
  <advance width="528"/>
  <unicode hex="0063"/>
  <anchor x="239" y="0" name="bottom"/>
  <anchor x="315" y="545" name="top"/>
  <outline>
    <contour>
      <point x="240" y="-15" type="curve" smooth="yes"/>
      <point x="362" y="-15"/>
      <point x="470" y="64"/>
      <point x="499" y="175" type="curve"/>
      <point x="374" y="208" type="line"/>
      <point x="357" y="128"/>
      <point x="309" y="78"/>
      <point x="255" y="78" type="curve" smooth="yes"/>
      <point x="195" y="78"/>
      <point x="162" y="133"/>
      <point x="162" y="219" type="curve" smooth="yes"/>
      <point x="162" y="359"/>
      <point x="226" y="469"/>
      <point x="306" y="469" type="curve" smooth="yes"/>
      <point x="354" y="469"/>
      <point x="391" y="429"/>
      <point x="387" y="352" type="curve"/>
      <point x="519" y="383" type="line"/>
      <point x="513" y="488"/>
      <point x="430" y="560"/>
      <point x="317" y="560" type="curve" smooth="yes"/>
      <point x="151" y="560"/>
      <point x="23" y="410"/>
      <point x="23" y="218" type="curve" smooth="yes"/>
      <point x="23" y="78"/>
      <point x="107" y="-15"/>
    </contour>
  </outline>
</glyph>
<glyph name="d" format="2">
  <advance width="599"/>
  <unicode hex="0064"/>
  <anchor x="262" y="0" name="bottom"/>
  <anchor x="488" y="570" name="center"/>
  <anchor x="337" y="544" name="top"/>
  <anchor x="576" y="545" name="topright"/>
  <outline>
    <contour>
      <point x="204" y="-14" type="curve" smooth="yes"/>
      <point x="290" y="-14"/>
      <point x="369" y="39"/>
      <point x="394" y="115" type="curve"/>
      <point x="388" y="115" type="line"/>
      <point x="373" y="0" type="line"/>
      <point x="501" y="0" type="line"/>
      <point x="599" y="713" type="line"/>
      <point x="469" y="713" type="line"/>
      <point x="431" y="443" type="line"/>
      <point x="439" y="443" type="line"/>
      <point x="430" y="513"/>
      <point x="369" y="556"/>
      <point x="285" y="556" type="curve" smooth="yes"/>
      <point x="136" y="556"/>
      <point x="22" y="403"/>
      <point x="22" y="211" type="curve" smooth="yes"/>
      <point x="22" y="75"/>
      <point x="92" y="-14"/>
    </contour>
    <contour>
      <point x="260" y="82" type="curve" smooth="yes"/>
      <point x="197" y="82"/>
      <point x="161" y="136"/>
      <point x="161" y="222" type="curve" smooth="yes"/>
      <point x="161" y="360"/>
      <point x="227" y="467"/>
      <point x="313" y="467" type="curve" smooth="yes"/>
      <point x="375" y="467"/>
      <point x="411" y="414"/>
      <point x="411" y="326" type="curve" smooth="yes"/>
      <point x="411" y="189"/>
      <point x="345" y="82"/>
    </contour>
  </outline>
</glyph>
<glyph name="e" format="2">
  <advance width="549"/>
  <unicode hex="0065"/>
  <anchor x="337" y="11" name="ogonek"/>
  <anchor x="316" y="545" name="top"/>
  <outline>
    <contour>
      <point x="253" y="-15" type="curve" smooth="yes"/>
      <point x="365" y="-15"/>
      <point x="464" y="48"/>
      <point x="502" y="149" type="curve"/>
      <point x="392" y="190" type="line"/>
      <point x="368" y="118"/>
      <point x="314" y="78"/>
      <point x="261" y="78" type="curve" smooth="yes"/>
      <point x="197" y="78"/>
      <point x="161" y="133"/>
      <point x="161" y="223" type="curve" smooth="yes"/>
      <point x="161" y="362"/>
      <point x="223" y="471"/>
      <point x="310" y="471" type="curve" smooth="yes"/>
      <point x="372" y="471"/>
      <point x="403" y="417"/>
      <point x="383" y="322" type="curve"/>
      <point x="399" y="329" type="line"/>
      <point x="165" y="329" type="line"/>
      <point x="154" y="247" type="line"/>
      <point x="516" y="247" type="line"/>
      <point x="558" y="442"/>
      <point x="477" y="560"/>
      <point x="315" y="560" type="curve" smooth="yes"/>
      <point x="145" y="560"/>
      <point x="23" y="411"/>
      <point x="23" y="220" type="curve" smooth="yes"/>
      <point x="23" y="77"/>
      <point x="117" y="-15"/>
    </contour>
  </outline>
</glyph>
<glyph name="f" format="2">
  <advance width="339"/>
  <unicode hex="0066"/>
  <note>
Controlla curva
</note>
  <outline>
    <contour>
      <point x="46" y="0" type="line"/>
      <point x="177" y="0" type="line"/>
      <point x="256" y="577" type="line" smooth="yes"/>
      <point x="263" y="631"/>
      <point x="303" y="653"/>
      <point x="377" y="636" type="curve"/>
      <point x="403" y="726" type="line"/>
      <point x="248" y="763"/>
      <point x="145" y="707"/>
      <point x="126" y="573" type="curve" smooth="yes"/>
    </contour>
    <contour>
      <point x="37" y="461" type="line"/>
      <point x="348" y="461" type="line"/>
      <point x="360" y="545" type="line"/>
      <point x="49" y="545" type="line"/>
    </contour>
  </outline>
</glyph>
<glyph name="g" format="2">
  <advance width="586"/>
  <unicode hex="0067"/>
  <anchor x="330" y="545" name="top"/>
  <outline>
    <contour>
      <point x="218" y="-233" type="curve" smooth="yes"/>
      <point x="362" y="-233"/>
      <point x="473" y="-153"/>
      <point x="495" y="7" type="curve" smooth="yes"/>
      <point x="570" y="545" type="line"/>
      <point x="442" y="545" type="line"/>
      <point x="428" y="443" type="line"/>
      <point x="434" y="443" type="line"/>
      <point x="428" y="513"/>
      <point x="365" y="560"/>
      <point x="284" y="560" type="curve" smooth="yes"/>
      <point x="141" y="560"/>
      <point x="25" y="408"/>
      <point x="25" y="221" type="curve" smooth="yes"/>
      <point x="25" y="88"/>
      <point x="97" y="0"/>
      <point x="205" y="0" type="curve" smooth="yes"/>
      <point x="287" y="0"/>
      <point x="363" y="51"/>
      <point x="390" y="127" type="curve"/>
      <point x="382" y="127" type="line"/>
      <point x="363" y="-7" type="line" smooth="yes"/>
      <point x="352" y="-87"/>
      <point x="305" y="-141"/>
      <point x="235" y="-141" type="curve" smooth="yes"/>
      <point x="176" y="-141"/>
      <point x="132" y="-105"/>
      <point x="127" y="-45" type="curve"/>
      <point x="-11" y="-93" type="line"/>
      <point x="11" y="-179"/>
      <point x="98" y="-233"/>
    </contour>
    <contour>
      <point x="257" y="93" type="curve" smooth="yes"/>
      <point x="198" y="93"/>
      <point x="164" y="148"/>
      <point x="164" y="230" type="curve" smooth="yes"/>
      <point x="164" y="365"/>
      <point x="230" y="469"/>
      <point x="312" y="469" type="curve" smooth="yes"/>
      <point x="372" y="469"/>
      <point x="407" y="416"/>
      <point x="407" y="332" type="curve" smooth="yes"/>
      <point x="407" y="199"/>
      <point x="342" y="93"/>
    </contour>
  </outline>
</glyph>
<glyph name="h" format="2">
  <advance width="588"/>
  <unicode hex="0068"/>
  <anchor x="257" y="0" name="bottom"/>
  <anchor x="189" y="570" name="center"/>
  <anchor x="355" y="712" name="top"/>
  <outline>
    <contour>
      <point x="24" y="0" type="line"/>
      <point x="154" y="0" type="line"/>
      <point x="190" y="260" type="line" smooth="yes"/>
      <point x="208" y="393"/>
      <point x="270" y="467"/>
      <point x="343" y="467" type="curve" smooth="yes"/>
      <point x="404" y="467"/>
      <point x="430" y="417"/>
      <point x="420" y="348" type="curve" smooth="yes"/>
      <point x="371" y="0" type="line"/>
      <point x="501" y="0" type="line"/>
      <point x="553" y="368" type="line" smooth="yes"/>
      <point x="570" y="491"/>
      <point x="505" y="560"/>
      <point x="406" y="560" type="curve" smooth="yes"/>
      <point x="312" y="560"/>
      <point x="232" y="499"/>
      <point x="202" y="409" type="curve"/>
      <point x="210" y="409" type="line"/>
      <point x="252" y="713" type="line"/>
      <point x="122" y="713" type="line"/>
    </contour>
  </outline>
</glyph>
<glyph name="k" format="2">
  <advance width="547"/>
  <unicode hex="006B"/>
  <anchor x="261" y="0" name="bottom"/>
  <outline>
    <contour>
      <point x="24" y="0" type="line"/>
      <point x="154" y="0" type="line"/>
      <point x="178" y="177" type="line"/>
      <point x="168" y="163" type="line"/>
      <point x="570" y="545" type="line"/>
      <point x="417" y="545" type="line"/>
      <point x="175" y="315" type="line"/>
      <point x="197" y="315" type="line"/>
      <point x="252" y="713" type="line"/>
      <point x="122" y="713" type="line"/>
    </contour>
    <contour>
      <point x="362" y="0" type="line"/>
      <point x="518" y="0" type="line"/>
      <point x="345" y="346" type="line"/>
      <point x="245" y="251" type="line"/>
    </contour>
  </outline>
</glyph>
<glyph name="l" format="2">
  <advance width="252"/>
  <unicode hex="006C"/>
  <anchor x="89" y="0" name="bottom"/>
  <anchor x="186" y="692" name="top"/>
  <anchor x="229" y="545" name="topright"/>
  <outline>
    <contour>
      <point x="24" y="0" type="line"/>
      <point x="154" y="0" type="line"/>
      <point x="252" y="713" type="line"/>
      <point x="122" y="713" type="line"/>
    </contour>
  </outline>
</glyph>
<glyph name="m" format="2">
  <advance width="844"/>
  <unicode hex="006D"/>
  <outline>
    <contour>
      <point x="17" y="0" type="line"/>
      <point x="147" y="0" type="line"/>
      <point x="189" y="275" type="line" smooth="yes"/>
      <point x="206" y="395"/>
      <point x="247" y="469"/>
      <point x="311" y="469" type="curve" smooth="yes"/>
      <point x="359" y="469"/>
      <point x="383" y="431"/>
      <point x="374" y="368" type="curve" smooth="yes"/>
      <point x="322" y="0" type="line"/>
      <point x="453" y="0" type="line"/>
      <point x="495" y="275" type="line" smooth="yes"/>
      <point x="512" y="396"/>
      <point x="556" y="469"/>
      <point x="616" y="469" type="curve" smooth="yes"/>
      <point x="668" y="469"/>
      <point x="688" y="428"/>
      <point x="680" y="368" type="curve" smooth="yes"/>
      <point x="629" y="0" type="line"/>
      <point x="758" y="0" type="line"/>
      <point x="809" y="368" type="line" smooth="yes"/>
      <point x="825" y="486"/>
      <point x="770" y="560"/>
      <point x="672" y="560" type="curve" smooth="yes"/>
      <point x="585" y="560"/>
      <point x="514" y="504"/>
      <point x="491" y="417" type="curve"/>
      <point x="500" y="417" type="line"/>
      <point x="503" y="504"/>
      <point x="450" y="560"/>
      <point x="369" y="560" type="curve" smooth="yes"/>
      <point x="286" y="560"/>
      <point x="219" y="504"/>
      <point x="196" y="417" type="curve"/>
      <point x="203" y="417" type="line"/>
      <point x="220" y="545" type="line"/>
      <point x="92" y="545" type="line"/>
    </contour>
  </outline>
</glyph>
<glyph name="n" format="2">
  <advance width="583"/>
  <unicode hex="006E"/>
  <anchor x="267" y="0" name="bottom"/>
  <anchor x="339" y="545" name="top"/>
  <outline>
    <contour>
      <point x="18" y="0" type="line"/>
      <point x="150" y="0" type="line"/>
      <point x="186" y="230" type="line" smooth="yes"/>
      <point x="207" y="377"/>
      <point x="260" y="467"/>
      <point x="337" y="467" type="curve" smooth="yes"/>
      <point x="391" y="467"/>
      <point x="424" y="426"/>
      <point x="413" y="348" type="curve" smooth="yes"/>
      <point x="364" y="0" type="line"/>
      <point x="496" y="0" type="line"/>
      <point x="548" y="368" type="line" smooth="yes"/>
      <point x="564" y="483"/>
      <point x="504" y="556"/>
      <point x="401" y="556" type="curve" smooth="yes"/>
      <point x="310" y="556"/>
      <point x="228" y="499"/>
      <point x="196" y="408" type="curve"/>
      <point x="204" y="408" type="line"/>
      <point x="223" y="544" type="line"/>
      <point x="92" y="544" type="line"/>
    </contour>
  </outline>
</glyph>
<glyph name="o" format="2">
  <advance width="568"/>
  <unicode hex="006F"/>
  <anchor x="284" y="272" name="center"/>
  <anchor x="321" y="544" name="top"/>
  <outline>
    <contour>
      <point x="245" y="-12" type="curve" smooth="yes"/>
      <point x="417" y="-12"/>
      <point x="545" y="135"/>
      <point x="545" y="325" type="curve" smooth="yes"/>
      <point x="545" y="464"/>
      <point x="456" y="556"/>
      <point x="325" y="556" type="curve" smooth="yes"/>
      <point x="150" y="556"/>
      <point x="23" y="408"/>
      <point x="23" y="221" type="curve" smooth="yes"/>
      <point x="23" y="81"/>
      <point x="112" y="-12"/>
    </contour>
    <contour>
      <point x="256" y="81" type="curve" smooth="yes"/>
      <point x="196" y="81"/>
      <point x="160" y="136"/>
      <point x="162" y="222" type="curve" smooth="yes"/>
      <point x="165" y="353"/>
      <point x="227" y="465"/>
      <point x="313" y="465" type="curve" smooth="yes"/>
      <point x="374" y="465"/>
      <point x="408" y="410"/>
      <point x="406" y="324" type="curve" smooth="yes"/>
      <point x="403" y="184"/>
      <point x="337" y="81"/>
    </contour>
  </outline>
</glyph>
<glyph name="p" format="2">
  <advance width="598"/>
  <unicode hex="0070"/>
  <outline>
    <contour>
      <point x="-7" y="-218" type="line"/>
      <point x="123" y="-218" type="line"/>
      <point x="167" y="104" type="line"/>
      <point x="159" y="104" type="line"/>
      <point x="168" y="33"/>
      <point x="232" y="-15"/>
      <point x="314" y="-15" type="curve" smooth="yes"/>
      <point x="460" y="-15"/>
      <point x="576" y="140"/>
      <point x="576" y="335" type="curve" smooth="yes"/>
      <point x="576" y="470"/>
      <point x="505" y="556"/>
      <point x="395" y="556" type="curve" smooth="yes"/>
      <point x="311" y="556"/>
      <point x="229" y="507"/>
      <point x="202" y="430" type="curve"/>
      <point x="211" y="430" type="line"/>
      <point x="226" y="545" type="line"/>
      <point x="98" y="545" type="line"/>
    </contour>
    <contour>
      <point x="284" y="78" type="curve" smooth="yes"/>
      <point x="222" y="78"/>
      <point x="187" y="133"/>
      <point x="187" y="219" type="curve" smooth="yes"/>
      <point x="187" y="357"/>
      <point x="253" y="465"/>
      <point x="339" y="465" type="curve" smooth="yes"/>
      <point x="401" y="465"/>
      <point x="439" y="411"/>
      <point x="439" y="323" type="curve" smooth="yes"/>
      <point x="439" y="188"/>
      <point x="371" y="78"/>
    </contour>
  </outline>
</glyph>
<glyph name="q" format="2">
  <advance width="601"/>
  <unicode hex="0071"/>
  <outline>
    <contour>
      <point x="342" y="-218" type="line"/>
      <point x="472" y="-218" type="line"/>
      <point x="576" y="545" type="line"/>
      <point x="448" y="545" type="line"/>
      <point x="433" y="441" type="line"/>
      <point x="441" y="441" type="line"/>
      <point x="431" y="512"/>
      <point x="367" y="556"/>
      <point x="283" y="556" type="curve" smooth="yes"/>
      <point x="136" y="556"/>
      <point x="22" y="404"/>
      <point x="22" y="210" type="curve" smooth="yes"/>
      <point x="22" y="74"/>
      <point x="92" y="-14"/>
      <point x="202" y="-14" type="curve" smooth="yes"/>
      <point x="286" y="-14"/>
      <point x="367" y="38"/>
      <point x="393" y="115" type="curve"/>
      <point x="386" y="115" type="line"/>
    </contour>
    <contour>
      <point x="260" y="82" type="curve" smooth="yes"/>
      <point x="197" y="82"/>
      <point x="161" y="136"/>
      <point x="161" y="222" type="curve" smooth="yes"/>
      <point x="161" y="361"/>
      <point x="228" y="467"/>
      <point x="314" y="467" type="curve" smooth="yes"/>
      <point x="376" y="467"/>
      <point x="412" y="413"/>
      <point x="412" y="326" type="curve" smooth="yes"/>
      <point x="412" y="189"/>
      <point x="345" y="82"/>
    </contour>
  </outline>
</glyph>
<glyph name="r" format="2">
  <advance width="390"/>
  <unicode hex="0072"/>
  <anchor x="44" y="0" name="bottom"/>
  <anchor x="298" y="545" name="top"/>
  <outline>
    <contour>
      <point x="16" y="0" type="line"/>
      <point x="146" y="0" type="line"/>
      <point x="186" y="287" type="line" smooth="yes"/>
      <point x="203" y="407"/>
      <point x="274" y="448"/>
      <point x="341" y="448" type="curve" smooth="yes"/>
      <point x="356" y="448"/>
      <point x="374" y="446"/>
      <point x="389" y="443" type="curve"/>
      <point x="404" y="550" type="line"/>
      <point x="391" y="553"/>
      <point x="376" y="555"/>
      <point x="363" y="555" type="curve" smooth="yes"/>
      <point x="279" y="555"/>
      <point x="208" y="486"/>
      <point x="189" y="376" type="curve"/>
      <point x="197" y="376" type="line"/>
      <point x="221" y="545" type="line"/>
      <point x="93" y="545" type="line"/>
    </contour>
  </outline>
</glyph>
<glyph name="s" format="2">
  <advance width="511"/>
  <unicode hex="0073"/>
  <note>
Falls to the left
</note>
  <anchor x="218" y="0" name="bottom"/>
  <anchor x="290" y="545" name="top"/>
  <outline>
    <contour>
      <point x="222" y="-15" type="curve" smooth="yes"/>
      <point x="368" y="-15"/>
      <point x="472" y="66"/>
      <point x="472" y="177" type="curve" smooth="yes"/>
      <point x="472" y="353"/>
      <point x="182" y="305"/>
      <point x="182" y="405" type="curve" smooth="yes"/>
      <point x="182" y="443"/>
      <point x="222" y="471"/>
      <point x="275" y="471" type="curve" smooth="yes"/>
      <point x="330" y="471"/>
      <point x="362" y="435"/>
      <point x="363" y="388" type="curve"/>
      <point x="489" y="422" type="line"/>
      <point x="476" y="513"/>
      <point x="397" y="560"/>
      <point x="289" y="560" type="curve" smooth="yes"/>
      <point x="148" y="560"/>
      <point x="48" y="483"/>
      <point x="48" y="369" type="curve" smooth="yes"/>
      <point x="48" y="198"/>
      <point x="335" y="253"/>
      <point x="335" y="146" type="curve" smooth="yes"/>
      <point x="335" y="106"/>
      <point x="288" y="75"/>
      <point x="235" y="75" type="curve" smooth="yes"/>
      <point x="175" y="75"/>
      <point x="133" y="115"/>
      <point x="129" y="169" type="curve"/>
      <point x="2" y="134" type="line"/>
      <point x="21" y="38"/>
      <point x="107" y="-15"/>
    </contour>
  </outline>
</glyph>
<glyph name="t" format="2">
  <advance width="361"/>
  <unicode hex="0074"/>
  <note>
Controlla curva
</note>
  <anchor x="180" y="0" name="bottom"/>
  <anchor x="174" y="331" name="center"/>
  <anchor x="264" y="560" name="topright"/>
  <outline>
    <contour>
      <point x="313" y="4" type="curve"/>
      <point x="316" y="104" type="line"/>
      <point x="239" y="73"/>
      <point x="198" y="92"/>
      <point x="206" y="155" type="curve" smooth="yes"/>
      <point x="282" y="700" type="line"/>
      <point x="145" y="636" type="line"/>
      <point x="129" y="521" type="line"/>
      <point x="127" y="521" type="line"/>
      <point x="73" y="130" type="line" smooth="yes"/>
      <point x="56" y="5"/>
      <point x="148" y="-43"/>
    </contour>
    <contour>
      <point x="32" y="460" type="line"/>
      <point x="372" y="460" type="line"/>
      <point x="384" y="544" type="line"/>
      <point x="44" y="544" type="line"/>
    </contour>
  </outline>
</glyph>
<glyph name="u" format="2">
  <advance width="589"/>
  <unicode hex="0075"/>
  <anchor x="489" y="8" name="ogonek"/>
  <anchor x="322" y="545" name="top"/>
  <outline>
    <contour>
      <point x="192" y="-15" type="curve" smooth="yes"/>
      <point x="291" y="-15"/>
      <point x="368" y="48"/>
      <point x="386" y="149" type="curve"/>
      <point x="379" y="149" type="line"/>
      <point x="372" y="95"/>
      <point x="371" y="41"/>
      <point x="378" y="0" type="curve"/>
      <point x="497" y="0" type="line"/>
      <point x="493" y="38"/>
      <point x="494" y="72"/>
      <point x="501" y="125" type="curve" smooth="yes"/>
      <point x="559" y="545" type="line"/>
      <point x="429" y="545" type="line"/>
      <point x="390" y="255" type="line" smooth="yes"/>
      <point x="375" y="145"/>
      <point x="320" y="80"/>
      <point x="250" y="80" type="curve" smooth="yes"/>
      <point x="194" y="80"/>
      <point x="159" y="126"/>
      <point x="170" y="203" type="curve" smooth="yes"/>
      <point x="217" y="545" type="line"/>
      <point x="86" y="545" type="line"/>
      <point x="37" y="186" type="line" smooth="yes"/>
      <point x="20" y="63"/>
      <point x="85" y="-15"/>
    </contour>
  </outline>
</glyph>
<glyph name="v" format="2">
  <advance width="499"/>
  <unicode hex="0076"/>
  <outline>
    <contour>
      <point x="136" y="0" type="line"/>
      <point x="291" y="0" type="line"/>
      <point x="537" y="545" type="line"/>
      <point x="412" y="545" type="line"/>
      <point x="230" y="130" type="line"/>
      <point x="238" y="130" type="line"/>
      <point x="171" y="545" type="line"/>
      <point x="38" y="545" type="line"/>
    </contour>
  </outline>
</glyph>
<glyph name="w" format="2">
  <advance width="731"/>
  <unicode hex="0077"/>
  <anchor x="327" y="0" name="bottom"/>
  <anchor x="404" y="544" name="top"/>
  <outline>
    <contour>
      <point x="97" y="0" type="line"/>
      <point x="239" y="0" type="line"/>
      <point x="373" y="361" type="line"/>
      <point x="367" y="361" type="line"/>
      <point x="419" y="0" type="line"/>
      <point x="564" y="0" type="line"/>
      <point x="769" y="545" type="line"/>
      <point x="640" y="545" type="line"/>
      <point x="501" y="138" type="line"/>
      <point x="507" y="138" type="line"/>
      <point x="462" y="545" type="line"/>
      <point x="344" y="545" type="line"/>
      <point x="195" y="134" type="line"/>
      <point x="201" y="134" type="line"/>
      <point x="162" y="545" type="line"/>
      <point x="38" y="545" type="line"/>
    </contour>
  </outline>
</glyph>
<glyph name="x" format="2">
  <advance width="521"/>
  <unicode hex="0078"/>
  <outline>
    <contour>
      <point x="-38" y="0" type="line"/>
      <point x="103" y="0" type="line"/>
      <point x="245" y="177" type="line"/>
      <point x="240" y="177" type="line"/>
      <point x="325" y="0" type="line"/>
      <point x="483" y="0" type="line"/>
      <point x="329" y="294" type="line"/>
      <point x="327" y="279" type="line"/>
      <point x="540" y="545" type="line"/>
      <point x="399" y="545" type="line"/>
      <point x="269" y="380" type="line"/>
      <point x="275" y="380" type="line"/>
      <point x="193" y="545" type="line"/>
      <point x="40" y="545" type="line"/>
      <point x="188" y="262" type="line"/>
      <point x="188" y="277" type="line"/>
    </contour>
  </outline>
</glyph>
<glyph name="y" format="2">
  <advance width="529"/>
  <unicode hex="0079"/>
  <anchor x="307" y="545" name="top"/>
  <outline>
    <contour>
      <point x="-58" y="-205" type="line"/>
      <point x="-12" y="-222"/>
      <point x="30" y="-229"/>
      <point x="66" y="-229" type="curve" smooth="yes"/>
      <point x="149" y="-229"/>
      <point x="222" y="-191"/>
      <point x="260" y="-109" type="curve" smooth="yes"/>
      <point x="567" y="545" type="line"/>
      <point x="437" y="545" type="line"/>
      <point x="255" y="132" type="line"/>
      <point x="263" y="132" type="line"/>
      <point x="177" y="545" type="line"/>
      <point x="43" y="545" type="line"/>
      <point x="175" y="-15" type="line"/>
      <point x="177" y="0" type="line"/>
      <point x="151" y="-56" type="line" smooth="yes"/>
      <point x="132" y="-98"/>
      <point x="96" y="-122"/>
      <point x="49" y="-122" type="curve" smooth="yes"/>
      <point x="24" y="-122"/>
      <point x="-3" y="-117"/>
      <point x="-34" y="-104" type="curve"/>
    </contour>
  </outline>
</glyph>
<glyph name="z" format="2">
  <advance width="459"/>
  <unicode hex="007A"/>
  <anchor x="193" y="0" name="bottom"/>
  <anchor x="229" y="272" name="center"/>
  <anchor x="268" y="545" name="top"/>
  <outline>
    <contour>
      <point x="-18" y="0" type="line"/>
      <point x="401" y="1" type="line"/>
      <point x="414" y="94" type="line"/>
      <point x="149" y="94" type="line"/>
      <point x="152" y="86" type="line"/>
      <point x="458" y="460" type="line"/>
      <point x="470" y="545" type="line"/>
      <point x="60" y="545" type="line"/>
      <point x="46" y="453" type="line"/>
      <point x="306" y="453" type="line"/>
      <point x="303" y="461" type="line"/>
      <point x="-6" y="86" type="line"/>
    </contour>
  </outline>
</glyph>
<glyph name="braceleft" format="2">
  <advance width="428"/>
  <unicode hex="007B"/>
  <outline>
    <contour>
      <point x="318" y="-220" type="curve"/>
      <point x="324" y="-131" type="line"/>
      <point x="250" y="-143"/>
      <point x="220" y="-119"/>
      <point x="230" y="-63" type="curve" smooth="yes"/>
      <point x="267" y="144" type="line" smooth="yes"/>
      <point x="270" y="199"/>
      <point x="252" y="233"/>
      <point x="199" y="236" type="curve"/>
      <point x="198" y="228" type="line"/>
      <point x="252" y="232"/>
      <point x="289" y="266"/>
      <point x="294" y="320" type="curve" smooth="yes"/>
      <point x="311" y="529" type="line" smooth="yes"/>
      <point x="316" y="585"/>
      <point x="354" y="607"/>
      <point x="424" y="595" type="curve"/>
      <point x="440" y="684" type="line"/>
      <point x="309" y="716"/>
      <point x="191" y="671"/>
      <point x="185" y="562" type="curve" smooth="yes"/>
      <point x="174" y="336" type="line" smooth="yes"/>
      <point x="172" y="297"/>
      <point x="150" y="277"/>
      <point x="112" y="277" type="curve" smooth="yes"/>
      <point x="70" y="277" type="line"/>
      <point x="57" y="188" type="line"/>
      <point x="99" y="188" type="line" smooth="yes"/>
      <point x="135" y="188"/>
      <point x="154" y="171"/>
      <point x="145" y="130" type="curve" smooth="yes"/>
      <point x="95" y="-96" type="line" smooth="yes"/>
      <point x="71" y="-206"/>
      <point x="176" y="-252"/>
    </contour>
  </outline>
</glyph>
<glyph name="bar" format="2">
  <advance width="272"/>
  <unicode hex="007C"/>
  <outline>
    <contour>
      <point x="1" y="-230" type="line"/>
      <point x="129" y="-230" type="line"/>
      <point x="261" y="706" type="line"/>
      <point x="133" y="706" type="line"/>
    </contour>
  </outline>
</glyph>
<glyph name="asciitilde" format="2">
  <advance width="659"/>
  <unicode hex="007E"/>
  <outline>
    <contour>
      <point x="420" y="218" type="curve" smooth="yes"/>
      <point x="510" y="218"/>
      <point x="577" y="274"/>
      <point x="604" y="373" type="curve"/>
      <point x="516" y="396" type="line"/>
      <point x="504" y="353"/>
      <point x="470" y="326"/>
      <point x="431" y="326" type="curve" smooth="yes"/>
      <point x="371" y="326"/>
      <point x="337" y="395"/>
      <point x="253" y="395" type="curve" smooth="yes"/>
      <point x="166" y="395"/>
      <point x="95" y="347"/>
      <point x="65" y="241" type="curve"/>
      <point x="160" y="218" type="line"/>
      <point x="172" y="260"/>
      <point x="203" y="286"/>
      <point x="241" y="286" type="curve" smooth="yes"/>
      <point x="301" y="286"/>
      <point x="336" y="218"/>
    </contour>
  </outline>
</glyph>
<glyph name="cent" format="2">
  <advance width="574"/>
  <unicode hex="00A2"/>
  <outline>
    <component base="c" xOffset="25" yOffset="24" identifier="69E082B3"/>
    <contour>
      <point x="193" y="-124" type="line"/>
      <point x="301" y="-124" type="line"/>
      <point x="415" y="692" type="line"/>
      <point x="307" y="692" type="line"/>
    </contour>
  </outline>
</glyph>
<glyph name="sterling" format="2">
  <advance width="576"/>
  <unicode hex="00A3"/>
  <outline>
    <contour>
      <point x="8" y="0" type="line"/>
      <point x="518" y="0" type="line"/>
      <point x="534" y="117" type="line"/>
      <point x="123" y="117" type="line"/>
      <point x="145" y="71" type="line"/>
      <point x="225" y="135"/>
      <point x="272" y="221"/>
      <point x="272" y="306" type="curve" smooth="yes"/>
      <point x="272" y="378"/>
      <point x="240" y="426"/>
      <point x="240" y="481" type="curve" smooth="yes"/>
      <point x="240" y="548"/>
      <point x="288" y="592"/>
      <point x="360" y="592" type="curve" smooth="yes"/>
      <point x="415" y="592"/>
      <point x="467" y="565"/>
      <point x="480" y="509" type="curve"/>
      <point x="595" y="566" type="line"/>
      <point x="579" y="627"/>
      <point x="507" y="705"/>
      <point x="372" y="705" type="curve" smooth="yes"/>
      <point x="226" y="705"/>
      <point x="113" y="608"/>
      <point x="113" y="481" type="curve" smooth="yes"/>
      <point x="113" y="414"/>
      <point x="150" y="381"/>
      <point x="150" y="309" type="curve" smooth="yes"/>
      <point x="150" y="222"/>
      <point x="94" y="148"/>
      <point x="21" y="93" type="curve"/>
    </contour>
    <contour>
      <point x="31" y="278" type="line"/>
      <point x="502" y="278" type="line"/>
      <point x="518" y="388" type="line"/>
      <point x="47" y="388" type="line"/>
    </contour>
  </outline>
</glyph>
<glyph name="currency" format="2">
  <advance width="574"/>
  <unicode hex="00A4"/>
  <outline>
    <contour>
      <point x="264" y="104" type="curve" smooth="yes"/>
      <point x="396" y="104"/>
      <point x="496" y="197"/>
      <point x="496" y="319" type="curve" smooth="yes"/>
      <point x="496" y="413"/>
      <point x="425" y="476"/>
      <point x="316" y="476" type="curve" smooth="yes"/>
      <point x="185" y="476"/>
      <point x="84" y="383"/>
      <point x="84" y="261" type="curve" smooth="yes"/>
      <point x="84" y="166"/>
      <point x="156" y="104"/>
    </contour>
    <contour>
      <point x="73" y="47" type="line"/>
      <point x="201" y="158" type="line"/>
      <point x="133" y="232" type="line"/>
      <point x="7" y="124" type="line"/>
    </contour>
    <contour>
      <point x="150" y="349" type="line"/>
      <point x="237" y="419" type="line"/>
      <point x="141" y="531" type="line"/>
      <point x="52" y="454" type="line"/>
    </contour>
    <contour>
      <point x="279" y="206" type="curve" smooth="yes"/>
      <point x="230" y="206"/>
      <point x="205" y="228"/>
      <point x="205" y="271" type="curve" smooth="yes"/>
      <point x="205" y="337"/>
      <point x="241" y="376"/>
      <point x="302" y="376" type="curve" smooth="yes"/>
      <point x="351" y="376"/>
      <point x="376" y="354"/>
      <point x="376" y="311" type="curve" smooth="yes"/>
      <point x="376" y="245"/>
      <point x="340" y="206"/>
    </contour>
    <contour>
      <point x="439" y="47" type="line"/>
      <point x="527" y="124" type="line"/>
      <point x="431" y="232" type="line"/>
      <point x="343" y="158" type="line"/>
    </contour>
    <contour>
      <point x="448" y="349" type="line"/>
      <point x="574" y="454" type="line"/>
      <point x="507" y="531" type="line"/>
      <point x="379" y="419" type="line"/>
    </contour>
  </outline>
</glyph>
<glyph name="yen" format="2">
  <advance width="648"/>
  <unicode hex="00A5"/>
  <outline>
    <component base="Y" xOffset="26"/>
    <contour>
      <point x="116" y="254" type="line"/>
      <point x="557" y="254" type="line"/>
      <point x="569" y="338" type="line"/>
      <point x="128" y="338" type="line"/>
    </contour>
    <contour>
      <point x="98" y="130" type="line"/>
      <point x="539" y="130" type="line"/>
      <point x="551" y="214" type="line"/>
      <point x="110" y="214" type="line"/>
    </contour>
  </outline>
</glyph>
<glyph name="brokenbar" format="2">
  <advance width="273"/>
  <unicode hex="00A6"/>
  <outline>
    <contour>
      <point x="82" y="336" type="line"/>
      <point x="210" y="336" type="line"/>
      <point x="262" y="706" type="line"/>
      <point x="134" y="706" type="line"/>
    </contour>
    <contour>
      <point x="183" y="150" type="line"/>
      <point x="55" y="150" type="line"/>
      <point x="2" y="-230" type="line"/>
      <point x="130" y="-230" type="line"/>
    </contour>
  </outline>
</glyph>
<glyph name="section" format="2">
  <advance width="588"/>
  <unicode hex="00A7"/>
  <note>
Storto? Controlla attacchi interrotti
</note>
  <outline>
    <contour>
      <point x="231" y="-233" type="curve" smooth="yes"/>
      <point x="389" y="-233"/>
      <point x="515" y="-158"/>
      <point x="515" y="-3" type="curve" smooth="yes"/>
      <point x="515" y="228"/>
      <point x="185" y="127"/>
      <point x="185" y="265" type="curve" smooth="yes"/>
      <point x="185" y="305"/>
      <point x="208" y="338"/>
      <point x="249" y="353" type="curve"/>
      <point x="260" y="431" type="line"/>
      <point x="126" y="411"/>
      <point x="47" y="330"/>
      <point x="47" y="218" type="curve" smooth="yes"/>
      <point x="47" y="6"/>
      <point x="379" y="107"/>
      <point x="379" y="-33" type="curve" smooth="yes"/>
      <point x="379" y="-97"/>
      <point x="328" y="-139"/>
      <point x="249" y="-139" type="curve" smooth="yes"/>
      <point x="173" y="-139"/>
      <point x="127" y="-97"/>
      <point x="123" y="-21" type="curve"/>
      <point x="-10" y="-68" type="line"/>
      <point x="5" y="-172"/>
      <point x="98" y="-233"/>
    </contour>
    <contour>
      <point x="295" y="48" type="line"/>
      <point x="441" y="53"/>
      <point x="560" y="121"/>
      <point x="560" y="264" type="curve" smooth="yes"/>
      <point x="560" y="483"/>
      <point x="228" y="386"/>
      <point x="228" y="518" type="curve" smooth="yes"/>
      <point x="228" y="575"/>
      <point x="276" y="613"/>
      <point x="350" y="613" type="curve" smooth="yes"/>
      <point x="415" y="613"/>
      <point x="460" y="580"/>
      <point x="457" y="521" type="curve"/>
      <point x="593" y="568" type="line"/>
      <point x="574" y="657"/>
      <point x="486" y="707"/>
      <point x="373" y="707" type="curve" smooth="yes"/>
      <point x="203" y="707"/>
      <point x="94" y="622"/>
      <point x="94" y="489" type="curve" smooth="yes"/>
      <point x="94" y="277"/>
      <point x="425" y="378"/>
      <point x="425" y="238" type="curve" smooth="yes"/>
      <point x="425" y="179"/>
      <point x="377" y="145"/>
      <point x="307" y="142" type="curve"/>
    </contour>
  </outline>
</glyph>
<glyph name="copyright" format="2">
  <advance width="832"/>
  <unicode hex="00A9"/>
  <outline>
    <contour>
      <point x="371" y="-44" type="curve" smooth="yes"/>
      <point x="614" y="-44"/>
      <point x="812" y="156"/>
      <point x="812" y="401" type="curve" smooth="yes"/>
      <point x="812" y="589"/>
      <point x="680" y="724"/>
      <point x="479" y="724" type="curve" smooth="yes"/>
      <point x="237" y="724"/>
      <point x="39" y="525"/>
      <point x="39" y="279" type="curve" smooth="yes"/>
      <point x="39" y="91"/>
      <point x="170" y="-44"/>
    </contour>
    <contour>
      <point x="384" y="49" type="curve" smooth="yes"/>
      <point x="236" y="49"/>
      <point x="146" y="138"/>
      <point x="146" y="284" type="curve" smooth="yes"/>
      <point x="146" y="485"/>
      <point x="280" y="631"/>
      <point x="466" y="631" type="curve" smooth="yes"/>
      <point x="615" y="631"/>
      <point x="704" y="542"/>
      <point x="704" y="396" type="curve" smooth="yes"/>
      <point x="704" y="194"/>
      <point x="570" y="49"/>
    </contour>
    <contour>
      <point x="401" y="137" type="curve" smooth="yes"/>
      <point x="497" y="137"/>
      <point x="577" y="200"/>
      <point x="597" y="287" type="curve"/>
      <point x="491" y="298" type="line"/>
      <point x="478" y="247"/>
      <point x="453" y="219"/>
      <point x="410" y="219" type="curve" smooth="yes"/>
      <point x="366" y="219"/>
      <point x="342" y="247"/>
      <point x="342" y="304" type="curve" smooth="yes"/>
      <point x="342" y="400"/>
      <point x="382" y="463"/>
      <point x="443" y="463" type="curve" smooth="yes"/>
      <point x="482" y="463"/>
      <point x="503" y="437"/>
      <point x="498" y="375" type="curve"/>
      <point x="607" y="397" type="line"/>
      <point x="615" y="482"/>
      <point x="549" y="543"/>
      <point x="456" y="543" type="curve" smooth="yes"/>
      <point x="332" y="543"/>
      <point x="236" y="438"/>
      <point x="236" y="304" type="curve" smooth="yes"/>
      <point x="236" y="205"/>
      <point x="297" y="137"/>
    </contour>
  </outline>
</glyph>
<glyph name="ordfeminine" format="2">
  <advance width="527"/>
  <unicode hex="00AA"/>
  <outline>
    <contour>
      <point x="210" y="318" type="curve" smooth="yes"/>
      <point x="281" y="318"/>
      <point x="342" y="370"/>
      <point x="354" y="435" type="curve"/>
      <point x="348" y="435" type="line"/>
      <point x="341" y="383"/>
      <point x="341" y="352"/>
      <point x="346" y="330" type="curve"/>
      <point x="452" y="330" type="line"/>
      <point x="449" y="352"/>
      <point x="451" y="385"/>
      <point x="455" y="418" type="curve" smooth="yes"/>
      <point x="472" y="562" type="line" smooth="yes"/>
      <point x="486" y="681"/>
      <point x="435" y="729"/>
      <point x="329" y="729" type="curve" smooth="yes"/>
      <point x="238" y="729"/>
      <point x="174" y="697"/>
      <point x="135" y="621" type="curve"/>
      <point x="228" y="590" type="line"/>
      <point x="250" y="639"/>
      <point x="279" y="658"/>
      <point x="314" y="658" type="curve" smooth="yes"/>
      <point x="347" y="658"/>
      <point x="371" y="635"/>
      <point x="366" y="599" type="curve" smooth="yes"/>
      <point x="358" y="538" type="line" smooth="yes"/>
      <point x="349" y="465"/>
      <point x="312" y="395"/>
      <point x="263" y="395" type="curve" smooth="yes"/>
      <point x="237" y="395"/>
      <point x="221" y="411"/>
      <point x="221" y="434" type="curve" smooth="yes"/>
      <point x="221" y="475"/>
      <point x="256" y="502"/>
      <point x="319" y="513" type="curve" smooth="yes"/>
      <point x="360" y="520" type="line"/>
      <point x="368" y="581" type="line"/>
      <point x="308" y="573" type="line" smooth="yes"/>
      <point x="179" y="556"/>
      <point x="104" y="500"/>
      <point x="104" y="414" type="curve" smooth="yes"/>
      <point x="104" y="356"/>
      <point x="146" y="318"/>
    </contour>
  </outline>
</glyph>
<glyph name="guillemetleft" format="2">
  <advance width="669"/>
  <unicode hex="00AB"/>
  <outline>
    <contour>
      <point x="313" y="20" type="line"/>
      <point x="330" y="140" type="line"/>
      <point x="149" y="260" type="line"/>
      <point x="147" y="252" type="line"/>
      <point x="358" y="368" type="line"/>
      <point x="374" y="486" type="line"/>
      <point x="68" y="306" type="line"/>
      <point x="54" y="206" type="line"/>
    </contour>
    <contour>
      <point x="600" y="20" type="line"/>
      <point x="617" y="140" type="line"/>
      <point x="436" y="260" type="line"/>
      <point x="434" y="252" type="line"/>
      <point x="645" y="368" type="line"/>
      <point x="661" y="486" type="line"/>
      <point x="355" y="306" type="line"/>
      <point x="341" y="206" type="line"/>
    </contour>
  </outline>
</glyph>
<glyph name="logicalnot" format="2">
  <advance width="596"/>
  <unicode hex="00AC"/>
  <outline>
    <contour>
      <point x="411" y="104" type="line"/>
      <point x="537" y="104" type="line"/>
      <point x="567" y="320" type="line"/>
      <point x="93" y="320" type="line"/>
      <point x="79" y="220" type="line"/>
      <point x="485" y="220" type="line"/>
      <point x="432" y="258" type="line"/>
    </contour>
  </outline>
</glyph>
<glyph name="registered" format="2">
  <advance width="832"/>
  <unicode hex="00AE"/>
  <outline>
    <contour>
      <point x="250" y="155" type="line"/>
      <point x="346" y="155" type="line"/>
      <point x="393" y="489" type="line"/>
      <point x="314" y="472" type="line"/>
      <point x="462" y="472" type="line" smooth="yes"/>
      <point x="483" y="472"/>
      <point x="496" y="462"/>
      <point x="496" y="442" type="curve" smooth="yes"/>
      <point x="496" y="413"/>
      <point x="476" y="393"/>
      <point x="449" y="393" type="curve" smooth="yes"/>
      <point x="338" y="393" type="line"/>
      <point x="326" y="310" type="line"/>
      <point x="403" y="310" type="line" smooth="yes"/>
      <point x="425" y="310"/>
      <point x="440" y="297"/>
      <point x="444" y="277" type="curve" smooth="yes"/>
      <point x="469" y="155" type="line"/>
      <point x="585" y="155" type="line"/>
      <point x="523" y="332" type="line" smooth="yes"/>
      <point x="515" y="355"/>
      <point x="491" y="356"/>
      <point x="459" y="352" type="curve"/>
      <point x="464" y="326" type="line"/>
      <point x="541" y="328"/>
      <point x="596" y="383"/>
      <point x="596" y="456" type="curve" smooth="yes"/>
      <point x="596" y="515"/>
      <point x="554" y="548"/>
      <point x="475" y="548" type="curve" smooth="yes"/>
      <point x="306" y="548" type="line"/>
    </contour>
    <contour>
      <point x="371" y="-44" type="curve" smooth="yes"/>
      <point x="614" y="-44"/>
      <point x="812" y="156"/>
      <point x="812" y="401" type="curve" smooth="yes"/>
      <point x="812" y="589"/>
      <point x="680" y="724"/>
      <point x="479" y="724" type="curve" smooth="yes"/>
      <point x="237" y="724"/>
      <point x="39" y="525"/>
      <point x="39" y="279" type="curve" smooth="yes"/>
      <point x="39" y="91"/>
      <point x="170" y="-44"/>
    </contour>
    <contour>
      <point x="384" y="49" type="curve" smooth="yes"/>
      <point x="236" y="49"/>
      <point x="146" y="138"/>
      <point x="146" y="284" type="curve" smooth="yes"/>
      <point x="146" y="485"/>
      <point x="280" y="631"/>
      <point x="466" y="631" type="curve" smooth="yes"/>
      <point x="615" y="631"/>
      <point x="704" y="542"/>
      <point x="704" y="396" type="curve" smooth="yes"/>
      <point x="704" y="194"/>
      <point x="570" y="49"/>
    </contour>
  </outline>
</glyph>
<glyph name="degree" format="2">
  <advance width="380"/>
  <unicode hex="00B0"/>
  <outline>
    <contour>
      <point x="207" y="394" type="curve" smooth="yes"/>
      <point x="309" y="394"/>
      <point x="393" y="476"/>
      <point x="393" y="574" type="curve" smooth="yes"/>
      <point x="393" y="652"/>
      <point x="336" y="708"/>
      <point x="251" y="708" type="curve" smooth="yes"/>
      <point x="150" y="708"/>
      <point x="66" y="626"/>
      <point x="66" y="527" type="curve" smooth="yes"/>
      <point x="66" y="450"/>
      <point x="123" y="394"/>
    </contour>
    <contour>
      <point x="218" y="477" type="curve" smooth="yes"/>
      <point x="181" y="477"/>
      <point x="158" y="501"/>
      <point x="158" y="538" type="curve" smooth="yes"/>
      <point x="158" y="588"/>
      <point x="193" y="625"/>
      <point x="239" y="625" type="curve" smooth="yes"/>
      <point x="277" y="625"/>
      <point x="302" y="602"/>
      <point x="302" y="564" type="curve" smooth="yes"/>
      <point x="302" y="515"/>
      <point x="266" y="477"/>
    </contour>
  </outline>
</glyph>
<glyph name="plusminus" format="2">
  <advance width="701"/>
  <unicode hex="00B1"/>
  <outline>
    <contour>
      <point x="93" y="-1" type="line"/>
      <point x="551" y="-1" type="line"/>
      <point x="566" y="104" type="line"/>
      <point x="108" y="104" type="line"/>
    </contour>
    <contour>
      <point x="276" y="141" type="line"/>
      <point x="389" y="141" type="line"/>
      <point x="447" y="552" type="line"/>
      <point x="334" y="552" type="line"/>
    </contour>
    <contour>
      <point x="113" y="292" type="line"/>
      <point x="594" y="292" type="line"/>
      <point x="609" y="397" type="line"/>
      <point x="128" y="397" type="line"/>
    </contour>
  </outline>
</glyph>
<glyph name="micro" format="2">
  <advance width="607"/>
  <unicode hex="00B5"/>
  <outline>
    <contour>
      <point x="225" y="-15" type="curve" smooth="yes"/>
      <point x="327" y="-15"/>
      <point x="381" y="47"/>
      <point x="407" y="153" type="curve"/>
      <point x="398" y="152" type="line"/>
      <point x="389" y="95"/>
      <point x="388" y="42"/>
      <point x="397" y="0" type="curve"/>
      <point x="515" y="0" type="line"/>
      <point x="511" y="37"/>
      <point x="512" y="74"/>
      <point x="519" y="125" type="curve" smooth="yes"/>
      <point x="578" y="545" type="line"/>
      <point x="448" y="545" type="line"/>
      <point x="407" y="255" type="line" smooth="yes"/>
      <point x="391" y="142"/>
      <point x="336" y="80"/>
      <point x="264" y="80" type="curve" smooth="yes"/>
      <point x="203" y="80"/>
      <point x="170" y="123"/>
      <point x="181" y="203" type="curve" smooth="yes"/>
      <point x="229" y="545" type="line"/>
      <point x="98" y="545" type="line"/>
      <point x="-9" y="-218" type="line"/>
      <point x="122" y="-218" type="line"/>
      <point x="160" y="51" type="line"/>
      <point x="122" y="31" type="line"/>
      <point x="145" y="-5"/>
      <point x="191" y="-15"/>
    </contour>
  </outline>
</glyph>
<glyph name="ordmasculine" format="2">
  <advance width="465"/>
  <unicode hex="00BA"/>
  <outline>
    <contour>
      <point x="243" y="322" type="curve" smooth="yes"/>
      <point x="367" y="322"/>
      <point x="460" y="423"/>
      <point x="460" y="556" type="curve" smooth="yes"/>
      <point x="460" y="657"/>
      <point x="395" y="725"/>
      <point x="293" y="725" type="curve" smooth="yes"/>
      <point x="169" y="725"/>
      <point x="76" y="624"/>
      <point x="76" y="492" type="curve" smooth="yes"/>
      <point x="76" y="390"/>
      <point x="141" y="322"/>
    </contour>
    <contour>
      <point x="252" y="395" type="curve" smooth="yes"/>
      <point x="217" y="395"/>
      <point x="197" y="430"/>
      <point x="197" y="488" type="curve" smooth="yes"/>
      <point x="197" y="580"/>
      <point x="235" y="653"/>
      <point x="284" y="653" type="curve" smooth="yes"/>
      <point x="319" y="653"/>
      <point x="339" y="617"/>
      <point x="339" y="560" type="curve" smooth="yes"/>
      <point x="339" y="468"/>
      <point x="300" y="395"/>
    </contour>
  </outline>
</glyph>
<glyph name="AE" format="2">
  <advance width="928"/>
  <unicode hex="00C6"/>
  <outline>
    <contour>
      <point x="-52" y="0" type="line"/>
      <point x="98" y="0" type="line"/>
      <point x="443" y="584" type="line"/>
      <point x="478" y="584" type="line"/>
      <point x="396" y="0" type="line"/>
      <point x="852" y="0" type="line"/>
      <point x="867" y="108" type="line"/>
      <point x="547" y="108" type="line"/>
      <point x="554" y="100" type="line"/>
      <point x="623" y="593" type="line"/>
      <point x="614" y="585" type="line"/>
      <point x="928" y="585" type="line"/>
      <point x="943" y="692" type="line"/>
      <point x="377" y="692" type="line"/>
    </contour>
    <contour>
      <point x="177" y="166" type="line"/>
      <point x="427" y="166" type="line"/>
      <point x="442" y="268" type="line"/>
      <point x="192" y="268" type="line"/>
    </contour>
    <contour>
      <point x="575" y="303" type="line"/>
      <point x="859" y="303" type="line"/>
      <point x="873" y="409" type="line"/>
      <point x="589" y="409" type="line"/>
    </contour>
  </outline>
</glyph>
<glyph name="Eth" format="2">
  <advance width="722"/>
  <unicode hex="00D0"/>
  <outline>
    <contour>
      <point x="36" y="310" type="line"/>
      <point x="388" y="310" type="line"/>
      <point x="388" y="414" type="line"/>
      <point x="36" y="414" type="line"/>
    </contour>
    <component base="D" xOffset="36"/>
  </outline>
</glyph>
<glyph name="multiply" format="2">
  <advance width="615"/>
  <unicode hex="00D7"/>
  <outline>
    <contour>
      <point x="150" y="60" type="line"/>
      <point x="598" y="433" type="line"/>
      <point x="535" y="512" type="line"/>
      <point x="86" y="140" type="line"/>
    </contour>
    <contour>
      <point x="472" y="60" type="line"/>
      <point x="558" y="140" type="line"/>
      <point x="213" y="512" type="line"/>
      <point x="128" y="433" type="line"/>
    </contour>
  </outline>
</glyph>
<glyph name="Thorn" format="2">
  <advance width="621"/>
  <unicode hex="00DE"/>
  <outline>
    <contour>
      <point x="189" y="134" type="line"/>
      <point x="323" y="134" type="line" smooth="yes"/>
      <point x="495" y="134"/>
      <point x="610" y="233"/>
      <point x="610" y="382" type="curve" smooth="yes"/>
      <point x="610" y="490"/>
      <point x="526" y="558"/>
      <point x="386" y="558" type="curve" smooth="yes"/>
      <point x="248" y="558" type="line"/>
      <point x="233" y="452" type="line"/>
      <point x="363" y="452" type="line" smooth="yes"/>
      <point x="423" y="452"/>
      <point x="456" y="421"/>
      <point x="456" y="370" type="curve" smooth="yes"/>
      <point x="456" y="294"/>
      <point x="406" y="244"/>
      <point x="332" y="244" type="curve" smooth="yes"/>
      <point x="204" y="244" type="line"/>
    </contour>
    <contour>
      <point x="34" y="0" type="line"/>
      <point x="178" y="0" type="line"/>
      <point x="275" y="692" type="line"/>
      <point x="131" y="692" type="line"/>
    </contour>
  </outline>
</glyph>
<glyph name="germandbls" format="2">
  <advance width="610"/>
  <unicode hex="00DF"/>
  <outline>
    <contour>
      <point x="344" y="-15" type="curve" smooth="yes"/>
      <point x="481" y="-15"/>
      <point x="576" y="66"/>
      <point x="576" y="179" type="curve" smooth="yes"/>
      <point x="576" y="311"/>
      <point x="413" y="295"/>
      <point x="413" y="376" type="curve" smooth="yes"/>
      <point x="413" y="462"/>
      <point x="539" y="458"/>
      <point x="539" y="581" type="curve" smooth="yes"/>
      <point x="539" y="671"/>
      <point x="464" y="724"/>
      <point x="351" y="724" type="curve" smooth="yes"/>
      <point x="217" y="724"/>
      <point x="113" y="643"/>
      <point x="96" y="520" type="curve" smooth="yes"/>
      <point x="23" y="0" type="line"/>
      <point x="154" y="0" type="line"/>
      <point x="227" y="520" type="line" smooth="yes"/>
      <point x="238" y="599"/>
      <point x="292" y="626"/>
      <point x="336" y="626" type="curve" smooth="yes"/>
      <point x="374" y="626"/>
      <point x="406" y="608"/>
      <point x="406" y="567" type="curve" smooth="yes"/>
      <point x="406" y="484"/>
      <point x="284" y="482"/>
      <point x="284" y="346" type="curve" smooth="yes"/>
      <point x="284" y="223"/>
      <point x="445" y="250"/>
      <point x="445" y="160" type="curve" smooth="yes"/>
      <point x="445" y="115"/>
      <point x="411" y="86"/>
      <point x="360" y="86" type="curve" smooth="yes"/>
      <point x="314" y="86"/>
      <point x="275" y="104"/>
      <point x="249" y="118" type="curve"/>
      <point x="204" y="13" type="line"/>
      <point x="236" y="0"/>
      <point x="289" y="-15"/>
    </contour>
  </outline>
</glyph>
<glyph name="ae" format="2">
  <advance width="910"/>
  <unicode hex="00E6"/>
  <outline>
    <contour>
      <point x="194" y="-15" type="curve" smooth="yes"/>
      <point x="314" y="-15"/>
      <point x="405" y="51"/>
      <point x="428" y="149" type="curve"/>
      <point x="518" y="342" type="line"/>
      <point x="539" y="491"/>
      <point x="465" y="560"/>
      <point x="326" y="560" type="curve" smooth="yes"/>
      <point x="206" y="560"/>
      <point x="111" y="508"/>
      <point x="63" y="413" type="curve"/>
      <point x="172" y="372" type="line"/>
      <point x="201" y="435"/>
      <point x="249" y="471"/>
      <point x="309" y="471" type="curve" smooth="yes"/>
      <point x="366" y="471"/>
      <point x="399" y="433"/>
      <point x="392" y="372" type="curve" smooth="yes"/>
      <point x="382" y="288" type="line" smooth="yes"/>
      <point x="368" y="169"/>
      <point x="298" y="80"/>
      <point x="219" y="80" type="curve" smooth="yes"/>
      <point x="176" y="80"/>
      <point x="151" y="104"/>
      <point x="151" y="141" type="curve" smooth="yes"/>
      <point x="151" y="201"/>
      <point x="201" y="239"/>
      <point x="297" y="253" type="curve" smooth="yes"/>
      <point x="384" y="266" type="line"/>
      <point x="396" y="348" type="line"/>
      <point x="274" y="331" type="line" smooth="yes"/>
      <point x="112" y="309"/>
      <point x="20" y="230"/>
      <point x="20" y="127" type="curve" smooth="yes"/>
      <point x="20" y="40"/>
      <point x="96" y="-15"/>
    </contour>
    <contour>
      <point x="605" y="-15" type="curve" smooth="yes"/>
      <point x="722" y="-15"/>
      <point x="826" y="51"/>
      <point x="864" y="149" type="curve"/>
      <point x="752" y="190" type="line"/>
      <point x="730" y="122"/>
      <point x="678" y="78"/>
      <point x="620" y="78" type="curve" smooth="yes"/>
      <point x="552" y="78"/>
      <point x="514" y="133"/>
      <point x="514" y="223" type="curve" smooth="yes"/>
      <point x="514" y="362"/>
      <point x="581" y="471"/>
      <point x="666" y="471" type="curve" smooth="yes"/>
      <point x="729" y="471"/>
      <point x="766" y="413"/>
      <point x="753" y="322" type="curve"/>
      <point x="761" y="329" type="line"/>
      <point x="517" y="329" type="line"/>
      <point x="505" y="247" type="line"/>
      <point x="877" y="247" type="line"/>
      <point x="920" y="445"/>
      <point x="837" y="560"/>
      <point x="674" y="560" type="curve" smooth="yes"/>
      <point x="502" y="560"/>
      <point x="375" y="414"/>
      <point x="375" y="220" type="curve" smooth="yes"/>
      <point x="375" y="77"/>
      <point x="464" y="-15"/>
    </contour>
  </outline>
</glyph>
<glyph name="eth" format="2">
  <advance width="585"/>
  <unicode hex="00F0"/>
  <outline>
    <contour>
      <point x="257" y="-15" type="curve" smooth="yes"/>
      <point x="445" y="-15"/>
      <point x="565" y="141"/>
      <point x="565" y="356" type="curve" smooth="yes"/>
      <point x="565" y="551"/>
      <point x="447" y="708"/>
      <point x="230" y="770" type="curve"/>
      <point x="168" y="700" type="line"/>
      <point x="302" y="670"/>
      <point x="387" y="589"/>
      <point x="417" y="480" type="curve"/>
      <point x="424" y="480" type="line"/>
      <point x="399" y="504"/>
      <point x="354" y="518"/>
      <point x="307" y="518" type="curve" smooth="yes"/>
      <point x="147" y="518"/>
      <point x="20" y="380"/>
      <point x="20" y="206" type="curve" smooth="yes"/>
      <point x="20" y="73"/>
      <point x="118" y="-15"/>
    </contour>
    <contour>
      <point x="268" y="76" type="curve" smooth="yes"/>
      <point x="199" y="76"/>
      <point x="158" y="128"/>
      <point x="158" y="211" type="curve" smooth="yes"/>
      <point x="158" y="334"/>
      <point x="226" y="428"/>
      <point x="316" y="428" type="curve" smooth="yes"/>
      <point x="384" y="428"/>
      <point x="424" y="377"/>
      <point x="424" y="294" type="curve" smooth="yes"/>
      <point x="424" y="170"/>
      <point x="357" y="76"/>
    </contour>
    <contour>
      <point x="210" y="543" type="line"/>
      <point x="535" y="662" type="line"/>
      <point x="513" y="744" type="line"/>
      <point x="188" y="625" type="line"/>
    </contour>
  </outline>
</glyph>
<glyph name="divide" format="2">
  <advance width="638"/>
  <unicode hex="00F7"/>
  <outline>
    <contour>
      <point x="271" y="398" type="line"/>
      <point x="403" y="398" type="line"/>
      <point x="422" y="532" type="line"/>
      <point x="290" y="532" type="line"/>
    </contour>
    <contour>
      <point x="221" y="40" type="line"/>
      <point x="353" y="40" type="line"/>
      <point x="372" y="174" type="line"/>
      <point x="240" y="174" type="line"/>
    </contour>
    <component base="minus" xOffset="1" yOffset="3"/>
  </outline>
</glyph>
<glyph name="thorn" format="2">
  <advance width="607"/>
  <unicode hex="00FE"/>
  <outline>
    <contour>
      <point x="-9" y="-218" type="line"/>
      <point x="121" y="-218" type="line"/>
      <point x="166" y="104" type="line"/>
      <point x="158" y="104" type="line"/>
      <point x="167" y="33"/>
      <point x="232" y="-15"/>
      <point x="317" y="-15" type="curve" smooth="yes"/>
      <point x="466" y="-15"/>
      <point x="585" y="139"/>
      <point x="585" y="335" type="curve" smooth="yes"/>
      <point x="585" y="471"/>
      <point x="514" y="560"/>
      <point x="399" y="560" type="curve" smooth="yes"/>
      <point x="312" y="560"/>
      <point x="230" y="507"/>
      <point x="202" y="430" type="curve"/>
      <point x="210" y="430" type="line"/>
      <point x="250" y="713" type="line"/>
      <point x="122" y="713" type="line"/>
    </contour>
    <contour>
      <point x="288" y="78" type="curve" smooth="yes"/>
      <point x="223" y="78"/>
      <point x="186" y="131"/>
      <point x="186" y="219" type="curve" smooth="yes"/>
      <point x="186" y="359"/>
      <point x="255" y="465"/>
      <point x="344" y="465" type="curve" smooth="yes"/>
      <point x="409" y="465"/>
      <point x="447" y="411"/>
      <point x="447" y="323" type="curve" smooth="yes"/>
      <point x="447" y="185"/>
      <point x="377" y="78"/>
    </contour>
  </outline>
</glyph>
<glyph name="dcroat" format="2">
  <advance width="626"/>
  <unicode hex="0111"/>
  <outline>
    <component base="d"/>
    <contour>
      <point x="352" y="587" type="line"/>
      <point x="661" y="587" type="line"/>
      <point x="671" y="661" type="line"/>
      <point x="362" y="661" type="line"/>
    </contour>
  </outline>
</glyph>
<glyph name="eogonek" format="2">
  <advance width="549"/>
  <unicode hex="0119"/>
  <outline>
    <contour>
      <point x="430" y="-208" type="curve"/>
      <point x="407" y="-145" type="line"/>
      <point x="348" y="-167"/>
      <point x="311" y="-151"/>
      <point x="311" y="-108" type="curve" smooth="yes"/>
      <point x="311" y="-60"/>
      <point x="358" y="-11"/>
      <point x="410" y="37" type="curve"/>
      <point x="320" y="11" type="line"/>
      <point x="257" y="-22"/>
      <point x="214" y="-84"/>
      <point x="214" y="-136" type="curve" smooth="yes"/>
      <point x="214" y="-225"/>
      <point x="311" y="-257"/>
    </contour>
    <component base="e"/>
  </outline>
</glyph>
<glyph name="Hbar" format="2">
  <advance width="781"/>
  <unicode hex="0126"/>
  <outline>
    <contour>
      <point x="86" y="508" type="line"/>
      <point x="762" y="508" type="line"/>
      <point x="774" y="600" type="line"/>
      <point x="98" y="600" type="line"/>
    </contour>
    <component base="H" xOffset="46"/>
  </outline>
</glyph>
<glyph name="hbar" format="2">
  <advance width="610"/>
  <unicode hex="0127"/>
  <outline>
    <component base="h" xOffset="22"/>
    <contour>
      <point x="52" y="588" type="line"/>
      <point x="354" y="588" type="line"/>
      <point x="364" y="662" type="line"/>
      <point x="62" y="662" type="line"/>
    </contour>
  </outline>
</glyph>
<glyph name="idotless" format="2">
  <advance width="240"/>
  <unicode hex="0131"/>
  <anchor x="82" y="0" name="bottom"/>
  <anchor x="140" y="7" name="ogonek"/>
  <anchor x="158" y="544" name="top"/>
  <outline>
    <contour>
      <point x="16" y="0" type="line"/>
      <point x="148" y="0" type="line"/>
      <point x="224" y="544" type="line"/>
      <point x="92" y="544" type="line"/>
    </contour>
  </outline>
</glyph>
<glyph name="kgreenlandic" format="2">
  <advance width="556"/>
  <unicode hex="0138"/>
  <outline>
    <contour>
      <point x="16" y="0" type="line"/>
      <point x="146" y="0" type="line"/>
      <point x="169" y="167" type="line"/>
      <point x="161" y="153" type="line"/>
      <point x="573" y="545" type="line"/>
      <point x="433" y="545" type="line"/>
      <point x="182" y="309" type="line"/>
      <point x="189" y="309" type="line"/>
      <point x="223" y="545" type="line"/>
      <point x="93" y="545" type="line"/>
    </contour>
    <contour>
      <point x="371" y="0" type="line"/>
      <point x="529" y="0" type="line"/>
      <point x="346" y="346" type="line"/>
      <point x="246" y="251" type="line"/>
    </contour>
  </outline>
</glyph>
<glyph name="ldot" format="2">
  <advance width="385"/>
  <unicode hex="0140"/>
  <outline>
    <contour>
      <point x="247" y="300" type="line"/>
      <point x="381" y="300" type="line"/>
      <point x="399" y="430" type="line"/>
      <point x="265" y="430" type="line"/>
    </contour>
    <component base="l" identifier="FBB2448D"/>
  </outline>
</glyph>
<glyph name="Lslash" format="2">
  <advance width="566"/>
  <unicode hex="0141"/>
  <outline>
    <component base="L" xOffset="33"/>
    <contour>
      <point x="39" y="258" type="line"/>
      <point x="439" y="370" type="line"/>
      <point x="407" y="466" type="line"/>
      <point x="7" y="352" type="line"/>
    </contour>
  </outline>
</glyph>
<glyph name="lslash" format="2">
  <advance width="307"/>
  <unicode hex="0142"/>
  <outline>
    <contour>
      <point x="166" y="328" type="line"/>
      <point x="166" y="433" type="line"/>
      <point x="-4" y="373" type="line"/>
      <point x="28" y="277" type="line"/>
    </contour>
    <component base="l" xOffset="29"/>
    <contour>
      <point x="176" y="443" type="line"/>
      <point x="176" y="338" type="line"/>
      <point x="353" y="401" type="line"/>
      <point x="324" y="496" type="line"/>
    </contour>
  </outline>
</glyph>
<glyph name="Eng" format="2">
  <advance width="828"/>
  <unicode hex="014A"/>
  <outline>
    <contour>
      <point x="445" y="-214" type="line"/>
      <point x="605" y="-258"/>
      <point x="703" y="-211"/>
      <point x="703" y="-90" type="curve" smooth="yes"/>
      <point x="703" y="692" type="line"/>
      <point x="573" y="692" type="line"/>
      <point x="573" y="200" type="line"/>
      <point x="581" y="200" type="line"/>
      <point x="295" y="692" type="line"/>
      <point x="131" y="692" type="line"/>
      <point x="131" y="0" type="line"/>
      <point x="261" y="0" type="line"/>
      <point x="261" y="508" type="line"/>
      <point x="253" y="508" type="line"/>
      <point x="581" y="-44" type="line"/>
      <point x="573" y="-12" type="line"/>
      <point x="573" y="-68" type="line" smooth="yes"/>
      <point x="573" y="-120"/>
      <point x="533" y="-140"/>
      <point x="459" y="-114" type="curve"/>
    </contour>
  </outline>
</glyph>
<glyph name="eng" format="2">
  <advance width="589"/>
  <unicode hex="014B"/>
  <outline>
    <contour>
      <point x="213" y="-216" type="line"/>
      <point x="366" y="-260"/>
      <point x="472" y="-214"/>
      <point x="489" y="-93" type="curve" smooth="yes"/>
      <point x="554" y="368" type="line" smooth="yes"/>
      <point x="571" y="486"/>
      <point x="511" y="560"/>
      <point x="404" y="560" type="curve" smooth="yes"/>
      <point x="307" y="560"/>
      <point x="224" y="499"/>
      <point x="194" y="409" type="curve"/>
      <point x="201" y="409" type="line"/>
      <point x="221" y="545" type="line"/>
      <point x="93" y="545" type="line"/>
      <point x="16" y="0" type="line"/>
      <point x="146" y="0" type="line"/>
      <point x="183" y="260" type="line" smooth="yes"/>
      <point x="201" y="391"/>
      <point x="260" y="467"/>
      <point x="341" y="467" type="curve" smooth="yes"/>
      <point x="401" y="467"/>
      <point x="430" y="422"/>
      <point x="420" y="348" type="curve" smooth="yes"/>
      <point x="361" y="-71" type="line" smooth="yes"/>
      <point x="354" y="-123"/>
      <point x="309" y="-143"/>
      <point x="240" y="-117" type="curve"/>
    </contour>
  </outline>
</glyph>
<glyph name="OE" format="2">
  <advance width="1003"/>
  <unicode hex="0152"/>
  <outline>
    <contour>
      <point x="301" y="-14" type="curve" smooth="yes"/>
      <point x="505" y="-14"/>
      <point x="664" y="175"/>
      <point x="664" y="417" type="curve" smooth="yes"/>
      <point x="664" y="591"/>
      <point x="564" y="706"/>
      <point x="402" y="706" type="curve" smooth="yes"/>
      <point x="197" y="706"/>
      <point x="38" y="517"/>
      <point x="38" y="275" type="curve" smooth="yes"/>
      <point x="38" y="101"/>
      <point x="138" y="-14"/>
    </contour>
    <contour>
      <point x="322" y="96" type="curve" smooth="yes"/>
      <point x="239" y="96"/>
      <point x="190" y="165"/>
      <point x="190" y="279" type="curve" smooth="yes"/>
      <point x="190" y="458"/>
      <point x="279" y="598"/>
      <point x="393" y="598" type="curve" smooth="yes"/>
      <point x="476" y="598"/>
      <point x="524" y="528"/>
      <point x="524" y="414" type="curve" smooth="yes"/>
      <point x="524" y="236"/>
      <point x="436" y="96"/>
    </contour>
    <contour>
      <point x="470" y="0" type="line"/>
      <point x="926" y="0" type="line"/>
      <point x="942" y="108" type="line"/>
      <point x="622" y="108" type="line"/>
      <point x="629" y="100" type="line"/>
      <point x="698" y="593" type="line"/>
      <point x="689" y="585" type="line"/>
      <point x="1003" y="585" type="line"/>
      <point x="1018" y="692" type="line"/>
      <point x="568" y="692" type="line"/>
    </contour>
    <contour>
      <point x="649" y="303" type="line"/>
      <point x="933" y="303" type="line"/>
      <point x="948" y="409" type="line"/>
      <point x="664" y="409" type="line"/>
    </contour>
  </outline>
</glyph>
<glyph name="oe" format="2">
  <advance width="932"/>
  <unicode hex="0153"/>
  <outline>
    <contour>
      <point x="241" y="-15" type="curve" smooth="yes"/>
      <point x="327" y="-15"/>
      <point x="405" y="24"/>
      <point x="452" y="93" type="curve"/>
      <point x="445" y="93" type="line"/>
      <point x="472" y="26"/>
      <point x="543" y="-15"/>
      <point x="630" y="-15" type="curve" smooth="yes"/>
      <point x="744" y="-15"/>
      <point x="848" y="51"/>
      <point x="886" y="149" type="curve"/>
      <point x="774" y="190" type="line"/>
      <point x="754" y="121"/>
      <point x="704" y="78"/>
      <point x="647" y="78" type="curve" smooth="yes"/>
      <point x="581" y="78"/>
      <point x="543" y="133"/>
      <point x="543" y="224" type="curve" smooth="yes"/>
      <point x="543" y="361"/>
      <point x="608" y="471"/>
      <point x="689" y="471" type="curve" smooth="yes"/>
      <point x="750" y="471"/>
      <point x="784" y="413"/>
      <point x="775" y="322" type="curve"/>
      <point x="783" y="329" type="line"/>
      <point x="547" y="329" type="line"/>
      <point x="535" y="247" type="line"/>
      <point x="899" y="247" type="line"/>
      <point x="942" y="441"/>
      <point x="853" y="560"/>
      <point x="705" y="560" type="curve" smooth="yes"/>
      <point x="618" y="560"/>
      <point x="546" y="517"/>
      <point x="497" y="452" type="curve"/>
      <point x="504" y="452" type="line"/>
      <point x="476" y="520"/>
      <point x="405" y="560"/>
      <point x="322" y="560" type="curve" smooth="yes"/>
      <point x="154" y="560"/>
      <point x="23" y="411"/>
      <point x="23" y="218" type="curve" smooth="yes"/>
      <point x="23" y="78"/>
      <point x="107" y="-15"/>
    </contour>
    <contour>
      <point x="259" y="78" type="curve" smooth="yes"/>
      <point x="197" y="78"/>
      <point x="161" y="131"/>
      <point x="161" y="219" type="curve" smooth="yes"/>
      <point x="161" y="358"/>
      <point x="228" y="469"/>
      <point x="313" y="469" type="curve" smooth="yes"/>
      <point x="375" y="469"/>
      <point x="411" y="415"/>
      <point x="411" y="327" type="curve" smooth="yes"/>
      <point x="411" y="188"/>
      <point x="343" y="78"/>
    </contour>
  </outline>
</glyph>
<glyph name="Uogonek" format="2">
  <advance width="675"/>
  <unicode hex="0172"/>
  <outline>
    <contour>
      <point x="494" y="-212" type="curve"/>
      <point x="478" y="-148" type="line"/>
      <point x="422" y="-172"/>
      <point x="382" y="-156"/>
      <point x="382" y="-112" type="curve" smooth="yes"/>
      <point x="382" y="-70"/>
      <point x="419" y="-19"/>
      <point x="487" y="17" type="curve"/>
      <point x="382" y="8" type="line"/>
      <point x="322" y="-24"/>
      <point x="282" y="-82"/>
      <point x="282" y="-136" type="curve" smooth="yes"/>
      <point x="282" y="-216"/>
      <point x="374" y="-252"/>
    </contour>
    <component base="U"/>
  </outline>
</glyph>
<glyph name="longs" format="2">
  <advance width="315"/>
  <unicode hex="017F"/>
  <outline>
    <contour>
      <point x="15" y="0" type="line"/>
      <point x="145" y="0" type="line"/>
      <point x="226" y="577" type="line" smooth="yes"/>
      <point x="233" y="626"/>
      <point x="277" y="643"/>
      <point x="349" y="627" type="curve"/>
      <point x="377" y="716" type="line"/>
      <point x="218" y="753"/>
      <point x="113" y="698"/>
      <point x="94" y="564" type="curve" smooth="yes"/>
    </contour>
  </outline>
</glyph>
<glyph name="Schwa" format="2">
  <advance width="706"/>
  <unicode hex="018F"/>
  <outline>
    <contour>
      <point x="313" y="-14" type="curve" smooth="yes"/>
      <point x="525" y="-14"/>
      <point x="688" y="172"/>
      <point x="688" y="411" type="curve" smooth="yes"/>
      <point x="688" y="589"/>
      <point x="579" y="706"/>
      <point x="405" y="706" type="curve" smooth="yes"/>
      <point x="265" y="706"/>
      <point x="137" y="626"/>
      <point x="88" y="504" type="curve"/>
      <point x="219" y="464" type="line"/>
      <point x="249" y="547"/>
      <point x="318" y="600"/>
      <point x="396" y="600" type="curve" smooth="yes"/>
      <point x="486" y="600"/>
      <point x="539" y="528"/>
      <point x="539" y="410" type="curve" smooth="yes"/>
      <point x="539" y="231"/>
      <point x="449" y="94"/>
      <point x="333" y="94" type="curve" smooth="yes"/>
      <point x="242" y="94"/>
      <point x="191" y="170"/>
      <point x="204" y="286" type="curve"/>
      <point x="194" y="278" type="line"/>
      <point x="532" y="278" type="line"/>
      <point x="547" y="382" type="line"/>
      <point x="65" y="382" type="line"/>
      <point x="12" y="146"/>
      <point x="113" y="-14"/>
    </contour>
  </outline>
</glyph>
<glyph name="florin" format="2">
  <advance width="585"/>
  <unicode hex="0192"/>
  <outline>
    <contour>
      <point x="-40" y="-14" type="line"/>
      <point x="132" y="-75"/>
      <point x="265" y="-26"/>
      <point x="312" y="148" type="curve" smooth="yes"/>
      <point x="412" y="522" type="line" smooth="yes"/>
      <point x="434" y="605"/>
      <point x="502" y="617"/>
      <point x="601" y="594" type="curve"/>
      <point x="632" y="695" type="line"/>
      <point x="462" y="746"/>
      <point x="331" y="699"/>
      <point x="281" y="515" type="curve" smooth="yes"/>
      <point x="182" y="150" type="line" smooth="yes"/>
      <point x="160" y="69"/>
      <point x="75" y="70"/>
      <point x="-9" y="90" type="curve"/>
    </contour>
    <contour>
      <point x="79" y="323" type="line"/>
      <point x="544" y="323" type="line"/>
      <point x="558" y="418" type="line"/>
      <point x="93" y="418" type="line"/>
    </contour>
  </outline>
</glyph>
<glyph name="jdotless" format="2">
  <advance width="251"/>
  <unicode hex="0237"/>
  <anchor x="170" y="545" name="top"/>
  <outline>
    <contour>
      <point x="-130" y="-208" type="line"/>
      <point x="-90" y="-223"/>
      <point x="-54" y="-230"/>
      <point x="-21" y="-230" type="curve" smooth="yes"/>
      <point x="71" y="-230"/>
      <point x="132" y="-174"/>
      <point x="145" y="-85" type="curve" smooth="yes"/>
      <point x="235" y="545" type="line"/>
      <point x="105" y="545" type="line"/>
      <point x="18" y="-63" type="line" smooth="yes"/>
      <point x="12" y="-101"/>
      <point x="-11" y="-120"/>
      <point x="-48" y="-120" type="curve" smooth="yes"/>
      <point x="-64" y="-120"/>
      <point x="-82" y="-117"/>
      <point x="-103" y="-109" type="curve"/>
    </contour>
  </outline>
</glyph>
<glyph name="schwa" format="2">
  <advance width="562"/>
  <unicode hex="0259"/>
  <outline>
    <contour>
      <point x="236" y="-15" type="curve" smooth="yes"/>
      <point x="409" y="-15"/>
      <point x="539" y="131"/>
      <point x="539" y="324" type="curve" smooth="yes"/>
      <point x="539" y="466"/>
      <point x="453" y="560"/>
      <point x="315" y="560" type="curve" smooth="yes"/>
      <point x="205" y="560"/>
      <point x="99" y="499"/>
      <point x="58" y="402" type="curve"/>
      <point x="171" y="357" type="line"/>
      <point x="192" y="425"/>
      <point x="241" y="469"/>
      <point x="300" y="469" type="curve" smooth="yes"/>
      <point x="364" y="469"/>
      <point x="401" y="414"/>
      <point x="401" y="324" type="curve" smooth="yes"/>
      <point x="401" y="184"/>
      <point x="334" y="77"/>
      <point x="247" y="77" type="curve" smooth="yes"/>
      <point x="180" y="77"/>
      <point x="143" y="132"/>
      <point x="156" y="220" type="curve"/>
      <point x="147" y="212" type="line"/>
      <point x="397" y="212" type="line"/>
      <point x="408" y="293" type="line"/>
      <point x="32" y="293" type="line"/>
      <point x="-9" y="107"/>
      <point x="72" y="-15"/>
    </contour>
  </outline>
</glyph>
<glyph name="gravecomb" format="2">
  <advance width="390"/>
  <unicode hex="0300"/>
  <anchor x="269" y="545" name="_top"/>
  <outline>
    <contour>
      <point x="261" y="603" type="line"/>
      <point x="359" y="603" type="line"/>
      <point x="296" y="755" type="line"/>
      <point x="146" y="755" type="line"/>
    </contour>
  </outline>
</glyph>
<glyph name="acutecomb" format="2">
  <advance width="397"/>
  <unicode hex="0301"/>
  <anchor x="175" y="544" name="_top"/>
  <outline>
    <contour>
      <point x="130" y="603" type="line"/>
      <point x="234" y="603" type="line"/>
      <point x="382" y="755" type="line"/>
      <point x="228" y="755" type="line"/>
    </contour>
  </outline>
</glyph>
<glyph name="circumflexcomb" format="2">
  <advance width="511"/>
  <unicode hex="0302"/>
  <anchor x="298" y="545" name="_top"/>
  <outline>
    <contour>
      <point x="119" y="603" type="line"/>
      <point x="231" y="603" type="line"/>
      <point x="327" y="709" type="line"/>
      <point x="316" y="709" type="line"/>
      <point x="380" y="603" type="line"/>
      <point x="486" y="603" type="line"/>
      <point x="395" y="755" type="line"/>
      <point x="251" y="755" type="line"/>
    </contour>
  </outline>
</glyph>
<glyph name="tildecomb" format="2">
  <advance width="496"/>
  <unicode hex="0303"/>
  <anchor x="288" y="561" name="_top"/>
  <outline>
    <contour>
      <point x="180" y="615" type="line"/>
      <point x="198" y="644"/>
      <point x="210" y="662"/>
      <point x="239" y="662" type="curve" smooth="yes"/>
      <point x="282" y="662"/>
      <point x="294" y="615"/>
      <point x="357" y="615" type="curve" smooth="yes"/>
      <point x="424" y="615"/>
      <point x="471" y="666"/>
      <point x="496" y="742" type="curve"/>
      <point x="433" y="755" type="line"/>
      <point x="415" y="720"/>
      <point x="400" y="700"/>
      <point x="371" y="700" type="curve" smooth="yes"/>
      <point x="329" y="700"/>
      <point x="316" y="747"/>
      <point x="253" y="747" type="curve" smooth="yes"/>
      <point x="189" y="747"/>
      <point x="139" y="698"/>
      <point x="116" y="628" type="curve"/>
    </contour>
  </outline>
</glyph>
<glyph name="brevecomb" format="2">
  <advance width="450"/>
  <unicode hex="0306"/>
  <anchor x="262" y="545" name="_top"/>
  <outline>
    <contour>
      <point x="270" y="599" type="curve" smooth="yes"/>
      <point x="367" y="599"/>
      <point x="430" y="658"/>
      <point x="443" y="752" type="curve"/>
      <point x="357" y="752" type="line"/>
      <point x="351" y="707"/>
      <point x="322" y="681"/>
      <point x="282" y="681" type="curve" smooth="yes"/>
      <point x="241" y="681"/>
      <point x="221" y="707"/>
      <point x="227" y="752" type="curve"/>
      <point x="141" y="752" type="line"/>
      <point x="128" y="661"/>
      <point x="171" y="599"/>
    </contour>
  </outline>
</glyph>
<glyph name="dotaccentcomb" format="2">
  <advance width="282"/>
  <unicode hex="0307"/>
  <anchor x="179" y="545" name="_top"/>
  <outline>
    <contour>
      <point x="122" y="614" type="line"/>
      <point x="256" y="614" type="line"/>
      <point x="274" y="740" type="line"/>
      <point x="140" y="740" type="line"/>
    </contour>
  </outline>
</glyph>
<glyph name="dieresiscomb" format="2">
  <advance width="446"/>
  <unicode hex="0308"/>
  <anchor x="261" y="545" name="_top"/>
  <outline>
    <contour>
      <point x="299" y="615" type="line"/>
      <point x="420" y="615" type="line"/>
      <point x="437" y="736" type="line"/>
      <point x="316" y="736" type="line"/>
    </contour>
    <contour>
      <point x="122" y="615" type="line"/>
      <point x="243" y="615" type="line"/>
      <point x="260" y="736" type="line"/>
      <point x="139" y="736" type="line"/>
    </contour>
  </outline>
</glyph>
<glyph name="ringcomb" format="2">
  <advance width="369"/>
  <unicode hex="030A"/>
  <anchor x="223" y="545" name="_top"/>
  <outline>
    <contour>
      <point x="230" y="599" type="curve" smooth="yes"/>
      <point x="300" y="599"/>
      <point x="354" y="642"/>
      <point x="354" y="700" type="curve" smooth="yes"/>
      <point x="354" y="747"/>
      <point x="315" y="778"/>
      <point x="256" y="778" type="curve" smooth="yes"/>
      <point x="186" y="778"/>
      <point x="132" y="734"/>
      <point x="132" y="676" type="curve" smooth="yes"/>
      <point x="132" y="629"/>
      <point x="172" y="599"/>
    </contour>
    <contour>
      <point x="239" y="651" type="curve" smooth="yes"/>
      <point x="218" y="651"/>
      <point x="205" y="663"/>
      <point x="205" y="681" type="curve" smooth="yes"/>
      <point x="205" y="706"/>
      <point x="224" y="724"/>
      <point x="249" y="724" type="curve" smooth="yes"/>
      <point x="268" y="724"/>
      <point x="280" y="713"/>
      <point x="280" y="694" type="curve" smooth="yes"/>
      <point x="280" y="669"/>
      <point x="263" y="651"/>
    </contour>
  </outline>
</glyph>
<glyph name="hungarumlautcomb" format="2">
  <advance width="504"/>
  <unicode hex="030B"/>
  <anchor x="262" y="545" name="_top"/>
  <outline>
    <contour>
      <point x="267" y="603" type="line"/>
      <point x="363" y="603" type="line"/>
      <point x="498" y="755" type="line"/>
      <point x="369" y="755" type="line"/>
    </contour>
    <contour>
      <point x="121" y="603" type="line"/>
      <point x="216" y="603" type="line"/>
      <point x="336" y="755" type="line"/>
      <point x="209" y="755" type="line"/>
    </contour>
  </outline>
</glyph>
<glyph name="caroncomb" format="2">
  <advance width="519"/>
  <unicode hex="030C"/>
  <anchor x="297" y="544" name="_top"/>
  <outline>
    <contour>
      <point x="233" y="603" type="line"/>
      <point x="382" y="603" type="line"/>
      <point x="511" y="755" type="line"/>
      <point x="393" y="755" type="line"/>
      <point x="308" y="644" type="line"/>
      <point x="317" y="644" type="line"/>
      <point x="250" y="755" type="line"/>
      <point x="144" y="755" type="line"/>
    </contour>
  </outline>
</glyph>
<glyph name="commaaccentcomb" format="2">
  <advance width="279"/>
  <unicode hex="0326"/>
  <anchor x="102" y="0" name="_bottom"/>
  <outline>
    <contour>
      <point x="7" y="-287" type="line"/>
      <point x="79" y="-273"/>
      <point x="136" y="-221"/>
      <point x="145" y="-156" type="curve" smooth="yes"/>
      <point x="161" y="-41" type="line"/>
      <point x="34" y="-41" type="line"/>
      <point x="16" y="-164" type="line"/>
      <point x="77" y="-164" type="line"/>
      <point x="77" y="-167" type="line" smooth="yes"/>
      <point x="73" y="-201"/>
      <point x="43" y="-226"/>
      <point x="3" y="-231" type="curve"/>
    </contour>
  </outline>
</glyph>
<glyph name="cedillacomb" format="2">
  <advance width="379"/>
  <unicode hex="0327"/>
  <anchor x="167" y="0" name="_bottom"/>
  <outline>
    <contour>
      <point x="4" y="-227" type="line"/>
      <point x="132" y="-271"/>
      <point x="246" y="-233"/>
      <point x="246" y="-143" type="curve" smooth="yes"/>
      <point x="246" y="-104"/>
      <point x="218" y="-72"/>
      <point x="164" y="-58" type="curve"/>
      <point x="170" y="-73" type="line"/>
      <point x="215" y="0" type="line"/>
      <point x="123" y="0" type="line"/>
      <point x="68" y="-86" type="line"/>
      <point x="121" y="-91"/>
      <point x="155" y="-104"/>
      <point x="155" y="-129" type="curve" smooth="yes"/>
      <point x="155" y="-168"/>
      <point x="101" y="-179"/>
      <point x="27" y="-149" type="curve"/>
    </contour>
  </outline>
</glyph>
<glyph name="ogonekcomb" format="2">
  <advance width="356"/>
  <unicode hex="0328"/>
  <anchor x="199" y="-1" name="_ogonek"/>
  <outline>
    <contour>
      <point x="215" y="-220" type="curve"/>
      <point x="208" y="-156" type="line"/>
      <point x="153" y="-178"/>
      <point x="117" y="-166"/>
      <point x="117" y="-129" type="curve" smooth="yes"/>
      <point x="117" y="-89"/>
      <point x="152" y="-41"/>
      <point x="207" y="-8" type="curve"/>
      <point x="124" y="0" type="line"/>
      <point x="64" y="-35"/>
      <point x="13" y="-101"/>
      <point x="13" y="-158" type="curve" smooth="yes"/>
      <point x="13" y="-228"/>
      <point x="97" y="-258"/>
    </contour>
  </outline>
</glyph>
<glyph name="slashshortcomb" format="2">
  <advance width="673"/>
  <unicode hex="0337"/>
  <anchor x="337" y="272" name="_center"/>
  <outline>
    <contour>
      <point x="109" y="-37" type="line"/>
      <point x="633" y="517" type="line"/>
      <point x="564" y="580" type="line"/>
      <point x="39" y="26" type="line"/>
    </contour>
  </outline>
</glyph>
<glyph name="slashlongcomb" format="2">
  <advance width="805"/>
  <unicode hex="0338"/>
  <anchor x="413" y="346" name="_center"/>
  <outline>
    <contour>
      <point x="122" y="-12" type="line"/>
      <point x="780" y="622" type="line"/>
      <point x="703" y="704" type="line"/>
      <point x="46" y="70" type="line"/>
    </contour>
  </outline>
</glyph>
<glyph name="Germandbls" format="2">
  <advance width="687"/>
  <unicode hex="1E9E"/>
  <outline>
    <contour>
      <point x="382" y="-14" type="curve" smooth="yes"/>
      <point x="538" y="-14"/>
      <point x="648" y="88"/>
      <point x="648" y="223" type="curve" smooth="yes"/>
      <point x="648" y="318"/>
      <point x="583" y="393"/>
      <point x="485" y="407" type="curve"/>
      <point x="484" y="383" type="line"/>
      <point x="642" y="648" type="line"/>
      <point x="568" y="692"/>
      <point x="473" y="720"/>
      <point x="383" y="720" type="curve" smooth="yes"/>
      <point x="242" y="720"/>
      <point x="117" y="653"/>
      <point x="97" y="508" type="curve" smooth="yes"/>
      <point x="26" y="0" type="line"/>
      <point x="170" y="0" type="line"/>
      <point x="238" y="482" type="line" smooth="yes"/>
      <point x="250" y="568"/>
      <point x="304" y="601"/>
      <point x="372" y="601" type="curve" smooth="yes"/>
      <point x="403" y="601"/>
      <point x="437" y="594"/>
      <point x="472" y="582" type="curve"/>
      <point x="478" y="624" type="line"/>
      <point x="319" y="347" type="line"/>
      <point x="440" y="337"/>
      <point x="507" y="286"/>
      <point x="507" y="211" type="curve" smooth="yes"/>
      <point x="507" y="137"/>
      <point x="455" y="94"/>
      <point x="372" y="94" type="curve" smooth="yes"/>
      <point x="329" y="94"/>
      <point x="294" y="105"/>
      <point x="263" y="118" type="curve"/>
      <point x="226" y="14" type="line"/>
      <point x="259" y="1"/>
      <point x="320" y="-14"/>
    </contour>
  </outline>
</glyph>
<glyph name="endash" format="2">
  <advance width="557"/>
  <unicode hex="2013"/>
  <outline>
    <contour>
      <point x="91" y="223" type="line"/>
      <point x="452" y="223" type="line"/>
      <point x="467" y="327" type="line"/>
      <point x="106" y="327" type="line"/>
    </contour>
  </outline>
</glyph>
<glyph name="emdash" format="2">
  <advance width="1022"/>
  <unicode hex="2014"/>
  <outline>
    <contour>
      <point x="39" y="223" type="line"/>
      <point x="969" y="223" type="line"/>
      <point x="984" y="327" type="line"/>
      <point x="54" y="327" type="line"/>
    </contour>
  </outline>
</glyph>
<glyph name="horizontalbar" format="2">
  <advance width="1022"/>
  <unicode hex="2015"/>
  <outline>
    <contour>
      <point x="91" y="223" type="line"/>
      <point x="917" y="223" type="line"/>
      <point x="932" y="327" type="line"/>
      <point x="106" y="327" type="line"/>
    </contour>
  </outline>
</glyph>
<glyph name="dagger" format="2">
  <advance width="526"/>
  <unicode hex="2020"/>
  <outline>
    <contour>
      <point x="149" y="-48" type="line"/>
      <point x="287" y="-48" type="line"/>
      <point x="391" y="692" type="line"/>
      <point x="253" y="692" type="line"/>
    </contour>
    <contour>
      <point x="45" y="414" type="line"/>
      <point x="521" y="414" type="line"/>
      <point x="539" y="544" type="line"/>
      <point x="63" y="544" type="line"/>
    </contour>
  </outline>
</glyph>
<glyph name="daggerdbl" format="2">
  <advance width="526"/>
  <unicode hex="2021"/>
  <outline>
    <contour>
      <point x="149" y="-48" type="line"/>
      <point x="287" y="-48" type="line"/>
      <point x="391" y="692" type="line"/>
      <point x="253" y="692" type="line"/>
    </contour>
    <contour>
      <point x="6" y="138" type="line"/>
      <point x="482" y="138" type="line"/>
      <point x="500" y="268" type="line"/>
      <point x="24" y="268" type="line"/>
    </contour>
    <contour>
      <point x="45" y="414" type="line"/>
      <point x="521" y="414" type="line"/>
      <point x="539" y="544" type="line"/>
      <point x="63" y="544" type="line"/>
    </contour>
  </outline>
</glyph>
<glyph name="minute" format="2">
  <advance width="284"/>
  <unicode hex="2032"/>
  <outline>
    <contour>
      <point x="71" y="418" type="line"/>
      <point x="166" y="418" type="line"/>
      <point x="328" y="692" type="line"/>
      <point x="180" y="692" type="line"/>
    </contour>
  </outline>
</glyph>
<glyph name="second" format="2">
  <advance width="462"/>
  <unicode hex="2033"/>
  <outline>
    <contour>
      <point x="71" y="418" type="line"/>
      <point x="166" y="418" type="line"/>
      <point x="316" y="692" type="line"/>
      <point x="168" y="692" type="line"/>
    </contour>
    <contour>
      <point x="251" y="418" type="line"/>
      <point x="346" y="418" type="line"/>
      <point x="506" y="692" type="line"/>
      <point x="358" y="692" type="line"/>
    </contour>
  </outline>
</glyph>
<glyph name="guilsinglleft" format="2">
  <advance width="412"/>
  <unicode hex="2039"/>
  <outline>
    <contour>
      <point x="343" y="20" type="line"/>
      <point x="360" y="140" type="line"/>
      <point x="164" y="260" type="line"/>
      <point x="162" y="252" type="line"/>
      <point x="388" y="368" type="line"/>
      <point x="404" y="486" type="line"/>
      <point x="68" y="306" type="line"/>
      <point x="54" y="206" type="line"/>
    </contour>
  </outline>
</glyph>
<glyph name="fraction" format="2">
  <advance width="207"/>
  <unicode hex="2044"/>
  <outline>
    <contour>
      <point x="-97" y="-15" type="line"/>
      <point x="413" y="644" type="line"/>
      <point x="335" y="707" type="line"/>
      <point x="-175" y="48" type="line"/>
    </contour>
  </outline>
</glyph>
<glyph name="zeroinferior" format="2">
  <advance width="425"/>
  <unicode hex="2080"/>
  <outline>
    <contour>
      <point x="163" y="-78" type="curve" smooth="yes"/>
      <point x="282" y="-78"/>
      <point x="382" y="41"/>
      <point x="382" y="184" type="curve" smooth="yes"/>
      <point x="382" y="290"/>
      <point x="319" y="364"/>
      <point x="225" y="364" type="curve" smooth="yes"/>
      <point x="106" y="364"/>
      <point x="7" y="244"/>
      <point x="7" y="102" type="curve" smooth="yes"/>
      <point x="7" y="-5"/>
      <point x="69" y="-78"/>
    </contour>
    <contour>
      <point x="175" y="6" type="curve" smooth="yes"/>
      <point x="141" y="6"/>
      <point x="122" y="41"/>
      <point x="122" y="98" type="curve" smooth="yes"/>
      <point x="122" y="196"/>
      <point x="164" y="282"/>
      <point x="214" y="282" type="curve" smooth="yes"/>
      <point x="248" y="282"/>
      <point x="268" y="247"/>
      <point x="268" y="188" type="curve" smooth="yes"/>
      <point x="268" y="90"/>
      <point x="226" y="6"/>
    </contour>
  </outline>
</glyph>
<glyph name="oneinferior" format="2">
  <advance width="341"/>
  <unicode hex="2081"/>
  <outline>
    <contour>
      <point x="122" y="-68" type="line"/>
      <point x="231" y="-68" type="line"/>
      <point x="291" y="355" type="line"/>
      <point x="195" y="355" type="line"/>
      <point x="158" y="314"/>
      <point x="109" y="285"/>
      <point x="56" y="270" type="curve"/>
      <point x="52" y="159" type="line"/>
      <point x="106" y="172"/>
      <point x="149" y="211"/>
      <point x="172" y="248" type="curve"/>
      <point x="167" y="248" type="line"/>
    </contour>
  </outline>
</glyph>
<glyph name="twoinferior" format="2">
  <advance width="410"/>
  <unicode hex="2082"/>
  <outline>
    <contour>
      <point x="3" y="-68" type="line"/>
      <point x="320" y="-68" type="line"/>
      <point x="332" y="20" type="line"/>
      <point x="147" y="20" type="line"/>
      <point x="150" y="17" type="line"/>
      <point x="214" y="96"/>
      <point x="364" y="111"/>
      <point x="364" y="246" type="curve" smooth="yes"/>
      <point x="364" y="313"/>
      <point x="313" y="364"/>
      <point x="226" y="364" type="curve" smooth="yes"/>
      <point x="149" y="364"/>
      <point x="75" y="323"/>
      <point x="46" y="231" type="curve"/>
      <point x="143" y="217" type="line"/>
      <point x="150" y="262"/>
      <point x="183" y="282"/>
      <point x="210" y="282" type="curve" smooth="yes"/>
      <point x="237" y="282"/>
      <point x="252" y="264"/>
      <point x="252" y="241" type="curve" smooth="yes"/>
      <point x="252" y="134"/>
      <point x="28" y="115"/>
      <point x="5" y="-52" type="curve" smooth="yes"/>
    </contour>
  </outline>
</glyph>
<glyph name="threeinferior" format="2">
  <advance width="387"/>
  <unicode hex="2083"/>
  <outline>
    <contour>
      <point x="144" y="-78" type="curve" smooth="yes"/>
      <point x="251" y="-78"/>
      <point x="333" y="-15"/>
      <point x="333" y="69" type="curve" smooth="yes"/>
      <point x="333" y="116"/>
      <point x="301" y="151"/>
      <point x="249" y="156" type="curve"/>
      <point x="249" y="152" type="line"/>
      <point x="306" y="167"/>
      <point x="341" y="211"/>
      <point x="341" y="262" type="curve" smooth="yes"/>
      <point x="341" y="322"/>
      <point x="288" y="364"/>
      <point x="207" y="364" type="curve" smooth="yes"/>
      <point x="119" y="364"/>
      <point x="49" y="318"/>
      <point x="33" y="244" type="curve"/>
      <point x="128" y="231" type="line"/>
      <point x="141" y="271"/>
      <point x="165" y="288"/>
      <point x="191" y="288" type="curve" smooth="yes"/>
      <point x="215" y="288"/>
      <point x="229" y="273"/>
      <point x="229" y="248" type="curve" smooth="yes"/>
      <point x="229" y="212"/>
      <point x="205" y="185"/>
      <point x="173" y="185" type="curve" smooth="yes"/>
      <point x="136" y="185" type="line"/>
      <point x="126" y="118" type="line"/>
      <point x="173" y="118" type="line" smooth="yes"/>
      <point x="202" y="118"/>
      <point x="221" y="100"/>
      <point x="221" y="71" type="curve" smooth="yes"/>
      <point x="221" y="30"/>
      <point x="193" y="-1"/>
      <point x="157" y="-1" type="curve" smooth="yes"/>
      <point x="122" y="-1"/>
      <point x="104" y="27"/>
      <point x="106" y="65" type="curve"/>
      <point x="-7" y="39" type="line"/>
      <point x="-9" y="-30"/>
      <point x="49" y="-78"/>
    </contour>
  </outline>
</glyph>
<glyph name="fourinferior" format="2">
  <advance width="393"/>
  <unicode hex="2084"/>
  <outline>
    <contour>
      <point x="172" y="-68" type="line"/>
      <point x="281" y="-68" type="line"/>
      <point x="340" y="353" type="line"/>
      <point x="247" y="353" type="line"/>
      <point x="-4" y="78" type="line"/>
      <point x="-14" y="9" type="line"/>
      <point x="348" y="9" type="line"/>
      <point x="360" y="94" type="line"/>
      <point x="88" y="94" type="line"/>
      <point x="89" y="89" type="line"/>
      <point x="218" y="231" type="line"/>
      <point x="214" y="231" type="line"/>
    </contour>
  </outline>
</glyph>
<glyph name="fiveinferior" format="2">
  <advance width="388"/>
  <unicode hex="2085"/>
  <outline>
    <contour>
      <point x="152" y="-78" type="curve" smooth="yes"/>
      <point x="261" y="-78"/>
      <point x="334" y="-9"/>
      <point x="334" y="95" type="curve" smooth="yes"/>
      <point x="334" y="164"/>
      <point x="292" y="207"/>
      <point x="217" y="207" type="curve" smooth="yes"/>
      <point x="149" y="207"/>
      <point x="112" y="180"/>
      <point x="96" y="149" type="curve"/>
      <point x="119" y="149" type="line"/>
      <point x="154" y="273" type="line"/>
      <point x="338" y="273" type="line"/>
      <point x="350" y="355" type="line"/>
      <point x="79" y="355" type="line"/>
      <point x="16" y="117" type="line"/>
      <point x="101" y="101" type="line"/>
      <point x="117" y="120"/>
      <point x="140" y="130"/>
      <point x="161" y="130" type="curve" smooth="yes"/>
      <point x="189" y="130"/>
      <point x="216" y="113"/>
      <point x="216" y="77" type="curve" smooth="yes"/>
      <point x="216" y="38"/>
      <point x="189" y="7"/>
      <point x="154" y="7" type="curve" smooth="yes"/>
      <point x="130" y="7"/>
      <point x="109" y="22"/>
      <point x="113" y="48" type="curve"/>
      <point x="7" y="37" type="line"/>
      <point x="6" y="-32"/>
      <point x="63" y="-78"/>
    </contour>
  </outline>
</glyph>
<glyph name="sixinferior" format="2">
  <advance width="411"/>
  <unicode hex="2086"/>
  <outline>
    <contour>
      <point x="165" y="-78" type="curve" smooth="yes"/>
      <point x="270" y="-78"/>
      <point x="350" y="-6"/>
      <point x="350" y="88" type="curve" smooth="yes"/>
      <point x="350" y="158"/>
      <point x="295" y="203"/>
      <point x="209" y="203" type="curve" smooth="yes"/>
      <point x="151" y="203"/>
      <point x="99" y="174"/>
      <point x="81" y="135" type="curve"/>
      <point x="108" y="135" type="line"/>
      <point x="122" y="224"/>
      <point x="149" y="280"/>
      <point x="213" y="280" type="curve" smooth="yes"/>
      <point x="246" y="280"/>
      <point x="269" y="264"/>
      <point x="273" y="231" type="curve"/>
      <point x="363" y="265" type="line"/>
      <point x="353" y="323"/>
      <point x="294" y="361"/>
      <point x="221" y="361" type="curve" smooth="yes"/>
      <point x="98" y="361"/>
      <point x="8" y="246"/>
      <point x="8" y="89" type="curve" smooth="yes"/>
      <point x="8" y="-11"/>
      <point x="61" y="-78"/>
    </contour>
    <contour>
      <point x="168" y="-8" type="curve" smooth="yes"/>
      <point x="138" y="-8"/>
      <point x="117" y="15"/>
      <point x="117" y="48" type="curve" smooth="yes"/>
      <point x="117" y="95"/>
      <point x="148" y="132"/>
      <point x="187" y="132" type="curve" smooth="yes"/>
      <point x="218" y="132"/>
      <point x="239" y="110"/>
      <point x="239" y="76" type="curve" smooth="yes"/>
      <point x="239" y="30"/>
      <point x="208" y="-8"/>
    </contour>
  </outline>
</glyph>
<glyph name="seveninferior" format="2">
  <advance width="358"/>
  <unicode hex="2087"/>
  <outline>
    <contour>
      <point x="40" y="-68" type="curve"/>
      <point x="153" y="-68" type="line"/>
      <point x="195" y="102"/>
      <point x="262" y="227"/>
      <point x="350" y="292" type="curve"/>
      <point x="359" y="355" type="line"/>
      <point x="25" y="355" type="line"/>
      <point x="13" y="271" type="line"/>
      <point x="219" y="271" type="line"/>
      <point x="218" y="275" type="line"/>
      <point x="138" y="192"/>
      <point x="70" y="61"/>
    </contour>
  </outline>
</glyph>
<glyph name="eightinferior" format="2">
  <advance width="415"/>
  <unicode hex="2088"/>
  <outline>
    <contour>
      <point x="157" y="-75" type="curve" smooth="yes"/>
      <point x="274" y="-75"/>
      <point x="357" y="-15"/>
      <point x="357" y="69" type="curve" smooth="yes"/>
      <point x="357" y="109"/>
      <point x="337" y="141"/>
      <point x="301" y="162" type="curve"/>
      <point x="300" y="157" type="line"/>
      <point x="343" y="179"/>
      <point x="367" y="215"/>
      <point x="367" y="259" type="curve" smooth="yes"/>
      <point x="367" y="322"/>
      <point x="309" y="364"/>
      <point x="219" y="364" type="curve" smooth="yes"/>
      <point x="115" y="364"/>
      <point x="37" y="307"/>
      <point x="37" y="229" type="curve" smooth="yes"/>
      <point x="37" y="199"/>
      <point x="52" y="175"/>
      <point x="82" y="157" type="curve"/>
      <point x="83" y="162" type="line"/>
      <point x="30" y="136"/>
      <point x="-6" y="89"/>
      <point x="-6" y="36" type="curve" smooth="yes"/>
      <point x="-6" y="-31"/>
      <point x="58" y="-75"/>
    </contour>
    <contour>
      <point x="169" y="6" type="curve" smooth="yes"/>
      <point x="133" y="6"/>
      <point x="111" y="26"/>
      <point x="111" y="57" type="curve" smooth="yes"/>
      <point x="111" y="99"/>
      <point x="142" y="129"/>
      <point x="186" y="129" type="curve" smooth="yes"/>
      <point x="222" y="129"/>
      <point x="244" y="109"/>
      <point x="244" y="78" type="curve" smooth="yes"/>
      <point x="244" y="36"/>
      <point x="212" y="6"/>
    </contour>
    <contour>
      <point x="194" y="189" type="curve" smooth="yes"/>
      <point x="163" y="189"/>
      <point x="142" y="204"/>
      <point x="142" y="229" type="curve" smooth="yes"/>
      <point x="142" y="261"/>
      <point x="170" y="284"/>
      <point x="208" y="284" type="curve" smooth="yes"/>
      <point x="240" y="284"/>
      <point x="262" y="268"/>
      <point x="262" y="243" type="curve" smooth="yes"/>
      <point x="262" y="211"/>
      <point x="233" y="189"/>
    </contour>
  </outline>
</glyph>
<glyph name="nineinferior" format="2">
  <advance width="411"/>
  <unicode hex="2089"/>
  <outline>
    <contour>
      <point x="132" y="-77" type="curve" smooth="yes"/>
      <point x="262" y="-85"/>
      <point x="372" y="34"/>
      <point x="372" y="194" type="curve" smooth="yes"/>
      <point x="372" y="290"/>
      <point x="318" y="361"/>
      <point x="213" y="361" type="curve" smooth="yes"/>
      <point x="107" y="361"/>
      <point x="23" y="287"/>
      <point x="23" y="191" type="curve" smooth="yes"/>
      <point x="23" y="122"/>
      <point x="82" y="79"/>
      <point x="160" y="79" type="curve" smooth="yes"/>
      <point x="205" y="79"/>
      <point x="238" y="89"/>
      <point x="271" y="113" type="curve"/>
      <point x="265" y="113" type="line"/>
      <point x="246" y="54"/>
      <point x="206" y="2"/>
      <point x="151" y="2" type="curve" smooth="yes"/>
      <point x="117" y="2"/>
      <point x="93" y="16"/>
      <point x="89" y="46" type="curve"/>
      <point x="-1" y="13" type="line"/>
      <point x="11" y="-36"/>
      <point x="63" y="-73"/>
    </contour>
    <contour>
      <point x="189" y="151" type="curve" smooth="yes"/>
      <point x="153" y="151"/>
      <point x="130" y="172"/>
      <point x="130" y="205" type="curve" smooth="yes"/>
      <point x="130" y="250"/>
      <point x="166" y="289"/>
      <point x="210" y="289" type="curve" smooth="yes"/>
      <point x="242" y="289"/>
      <point x="262" y="263"/>
      <point x="262" y="229" type="curve" smooth="yes"/>
      <point x="262" y="184"/>
      <point x="232" y="151"/>
    </contour>
  </outline>
</glyph>
<glyph name="plusinferior" format="2">
  <advance width="339"/>
  <unicode hex="208A"/>
  <outline>
    <contour>
      <point x="92" y="-2" type="line"/>
      <point x="172" y="-2" type="line"/>
      <point x="212" y="283" type="line"/>
      <point x="132" y="283" type="line"/>
    </contour>
    <contour>
      <point x="3" y="103" type="line"/>
      <point x="290" y="103" type="line"/>
      <point x="300" y="176" type="line"/>
      <point x="13" y="176" type="line"/>
    </contour>
  </outline>
</glyph>
<glyph name="equalinferior" format="2">
  <advance width="353"/>
  <unicode hex="208C"/>
  <outline>
    <contour>
      <point x="24" y="53" type="line"/>
      <point x="305" y="53" type="line"/>
      <point x="315" y="126" type="line"/>
      <point x="34" y="126" type="line"/>
    </contour>
    <contour>
      <point x="38" y="153" type="line"/>
      <point x="319" y="153" type="line"/>
      <point x="329" y="225" type="line"/>
      <point x="48" y="225" type="line"/>
    </contour>
  </outline>
</glyph>
<glyph name="parenleftinferior" format="2">
  <advance width="235"/>
  <unicode hex="208D"/>
  <outline>
    <contour>
      <point x="91" y="-143" type="curve"/>
      <point x="171" y="-89" type="line"/>
      <point x="151" y="-43"/>
      <point x="142" y="10"/>
      <point x="142" y="65" type="curve" smooth="yes"/>
      <point x="142" y="176"/>
      <point x="178" y="298"/>
      <point x="235" y="375" type="curve"/>
      <point x="171" y="429" type="line"/>
      <point x="89" y="338"/>
      <point x="33" y="204"/>
      <point x="33" y="78" type="curve" smooth="yes"/>
      <point x="33" y="-2"/>
      <point x="53" y="-81"/>
    </contour>
  </outline>
</glyph>
<glyph name="euro" format="2">
  <advance width="688"/>
  <unicode hex="20AC"/>
  <anchor x="354" y="0" name="bottom"/>
  <anchor x="440" y="692" name="top"/>
  <outline>
    <contour>
      <point x="23" y="365" type="line"/>
      <point x="441" y="365" type="line"/>
      <point x="452" y="443" type="line"/>
      <point x="34" y="443" type="line"/>
    </contour>
    <contour>
      <point x="3" y="247" type="line"/>
      <point x="417" y="247" type="line"/>
      <point x="428" y="326" type="line"/>
      <point x="14" y="326" type="line"/>
    </contour>
    <contour>
      <point x="340" y="-14" type="curve" smooth="yes"/>
      <point x="492" y="-14"/>
      <point x="619" y="84"/>
      <point x="661" y="228" type="curve"/>
      <point x="530" y="276" type="line"/>
      <point x="505" y="166"/>
      <point x="437" y="96"/>
      <point x="356" y="96" type="curve" smooth="yes"/>
      <point x="274" y="96"/>
      <point x="227" y="166"/>
      <point x="227" y="279" type="curve" smooth="yes"/>
      <point x="227" y="457"/>
      <point x="314" y="598"/>
      <point x="426" y="598" type="curve" smooth="yes"/>
      <point x="501" y="598"/>
      <point x="548" y="540"/>
      <point x="546" y="448" type="curve"/>
      <point x="687" y="488" type="line"/>
      <point x="677" y="621"/>
      <point x="581" y="706"/>
      <point x="442" y="706" type="curve" smooth="yes"/>
      <point x="239" y="706"/>
      <point x="82" y="519"/>
      <point x="82" y="277" type="curve" smooth="yes"/>
      <point x="82" y="102"/>
      <point x="181" y="-14"/>
    </contour>
  </outline>
</glyph>
<glyph name="published" format="2">
  <advance width="832"/>
  <unicode hex="2117"/>
  <outline>
    <contour>
      <point x="259" y="145" type="line"/>
      <point x="359" y="145" type="line"/>
      <point x="407" y="484" type="line"/>
      <point x="321" y="449" type="line"/>
      <point x="465" y="449" type="line" smooth="yes"/>
      <point x="488" y="449"/>
      <point x="502" y="438"/>
      <point x="502" y="418" type="curve" smooth="yes"/>
      <point x="502" y="388"/>
      <point x="482" y="369"/>
      <point x="451" y="369" type="curve" smooth="yes"/>
      <point x="344" y="369" type="line"/>
      <point x="332" y="283" type="line"/>
      <point x="435" y="283" type="line" smooth="yes"/>
      <point x="534" y="283"/>
      <point x="604" y="345"/>
      <point x="604" y="431" type="curve" smooth="yes"/>
      <point x="604" y="495"/>
      <point x="554" y="535"/>
      <point x="473" y="535" type="curve" smooth="yes"/>
      <point x="314" y="535" type="line"/>
    </contour>
    <contour>
      <point x="371" y="-44" type="curve" smooth="yes"/>
      <point x="614" y="-44"/>
      <point x="812" y="156"/>
      <point x="812" y="401" type="curve" smooth="yes"/>
      <point x="812" y="589"/>
      <point x="680" y="724"/>
      <point x="479" y="724" type="curve" smooth="yes"/>
      <point x="237" y="724"/>
      <point x="39" y="525"/>
      <point x="39" y="279" type="curve" smooth="yes"/>
      <point x="39" y="91"/>
      <point x="170" y="-44"/>
    </contour>
    <contour>
      <point x="384" y="49" type="curve" smooth="yes"/>
      <point x="236" y="49"/>
      <point x="146" y="138"/>
      <point x="146" y="284" type="curve" smooth="yes"/>
      <point x="146" y="485"/>
      <point x="280" y="631"/>
      <point x="466" y="631" type="curve" smooth="yes"/>
      <point x="615" y="631"/>
      <point x="704" y="542"/>
      <point x="704" y="396" type="curve" smooth="yes"/>
      <point x="704" y="194"/>
      <point x="570" y="49"/>
    </contour>
  </outline>
</glyph>
<glyph name="trademark" format="2">
  <advance width="757"/>
  <unicode hex="2122"/>
  <outline>
    <contour>
      <point x="352" y="340" type="line"/>
      <point x="446" y="340" type="line"/>
      <point x="486" y="619" type="line"/>
      <point x="466" y="615" type="line"/>
      <point x="521" y="340" type="line"/>
      <point x="572" y="340" type="line"/>
      <point x="702" y="620" type="line"/>
      <point x="684" y="623" type="line"/>
      <point x="644" y="340" type="line"/>
      <point x="746" y="340" type="line"/>
      <point x="796" y="692" type="line"/>
      <point x="671" y="692" type="line"/>
      <point x="552" y="450" type="line"/>
      <point x="592" y="450" type="line"/>
      <point x="534" y="692" type="line"/>
      <point x="402" y="692" type="line"/>
    </contour>
    <contour>
      <point x="122" y="340" type="line"/>
      <point x="227" y="340" type="line"/>
      <point x="266" y="617" type="line"/>
      <point x="161" y="617" type="line"/>
    </contour>
    <contour>
      <point x="67" y="608" type="line"/>
      <point x="359" y="608" type="line"/>
      <point x="371" y="692" type="line"/>
      <point x="79" y="692" type="line"/>
    </contour>
  </outline>
</glyph>
<glyph name="minus" format="2">
  <advance width="638"/>
  <unicode hex="2212"/>
  <outline>
    <contour>
      <point x="80" y="232" type="line"/>
      <point x="546" y="232" type="line"/>
      <point x="561" y="337" type="line"/>
      <point x="95" y="337" type="line"/>
    </contour>
  </outline>
</glyph>
<glyph name="approxequal" format="2">
  <advance width="694"/>
  <unicode hex="2248"/>
  <outline>
    <contour>
      <point x="423" y="137" type="curve" smooth="yes"/>
      <point x="503" y="137"/>
      <point x="572" y="183"/>
      <point x="600" y="286" type="curve"/>
      <point x="515" y="309" type="line"/>
      <point x="505" y="269"/>
      <point x="474" y="241"/>
      <point x="434" y="241" type="curve" smooth="yes"/>
      <point x="376" y="241"/>
      <point x="342" y="308"/>
      <point x="261" y="308" type="curve" smooth="yes"/>
      <point x="178" y="308"/>
      <point x="108" y="261"/>
      <point x="80" y="159" type="curve"/>
      <point x="171" y="137" type="line"/>
      <point x="182" y="175"/>
      <point x="211" y="202"/>
      <point x="250" y="202" type="curve" smooth="yes"/>
      <point x="308" y="202"/>
      <point x="342" y="137"/>
    </contour>
    <contour>
      <point x="450" y="328" type="curve" smooth="yes"/>
      <point x="530" y="328"/>
      <point x="599" y="374"/>
      <point x="627" y="478" type="curve"/>
      <point x="542" y="500" type="line"/>
      <point x="531" y="458"/>
      <point x="499" y="432"/>
      <point x="460" y="432" type="curve" smooth="yes"/>
      <point x="402" y="432"/>
      <point x="369" y="499"/>
      <point x="288" y="499" type="curve" smooth="yes"/>
      <point x="205" y="499"/>
      <point x="135" y="453"/>
      <point x="107" y="350" type="curve"/>
      <point x="198" y="328" type="line"/>
      <point x="210" y="371"/>
      <point x="242" y="394"/>
      <point x="277" y="394" type="curve" smooth="yes"/>
      <point x="335" y="394"/>
      <point x="369" y="328"/>
    </contour>
  </outline>
</glyph>
<glyph name="notequal" format="2">
  <advance width="686"/>
  <unicode hex="2260"/>
  <outline>
    <contour>
      <point x="163" y="-4" type="line"/>
      <point x="530" y="494" type="line"/>
      <point x="456" y="556" type="line"/>
      <point x="88" y="55" type="line"/>
    </contour>
    <component base="equal"/>
  </outline>
</glyph>
<glyph name="equivalence" format="2">
  <advance width="703"/>
  <unicode hex="2261"/>
  <outline>
    <contour>
      <point x="128" y="253" type="line"/>
      <point x="568" y="253" type="line"/>
      <point x="580" y="335" type="line"/>
      <point x="140" y="335" type="line"/>
    </contour>
    <contour>
      <point x="149" y="398" type="line"/>
      <point x="589" y="398" type="line"/>
      <point x="600" y="480" type="line"/>
      <point x="160" y="480" type="line"/>
    </contour>
    <contour>
      <point x="108" y="108" type="line"/>
      <point x="548" y="108" type="line"/>
      <point x="560" y="190" type="line"/>
      <point x="120" y="190" type="line"/>
    </contour>
  </outline>
</glyph>
<glyph name="lessequal" format="2">
  <advance width="679"/>
  <unicode hex="2264"/>
  <outline>
    <contour>
      <point x="531" y="0" type="line"/>
      <point x="543" y="94" type="line"/>
      <point x="91" y="94" type="line"/>
      <point x="79" y="0" type="line"/>
    </contour>
    <contour>
      <point x="546" y="126" type="line"/>
      <point x="560" y="239" type="line"/>
      <point x="207" y="359" type="line"/>
      <point x="203" y="321" type="line"/>
      <point x="585" y="453" type="line"/>
      <point x="599" y="566" type="line"/>
      <point x="127" y="390" type="line"/>
      <point x="115" y="290" type="line"/>
    </contour>
  </outline>
</glyph>
<glyph name="greaterequal" format="2">
  <advance width="672"/>
  <unicode hex="2265"/>
  <outline>
    <contour>
      <point x="72" y="0" type="line"/>
      <point x="524" y="0" type="line"/>
      <point x="537" y="94" type="line"/>
      <point x="85" y="94" type="line"/>
    </contour>
    <contour>
      <point x="91" y="126" type="line"/>
      <point x="565" y="290" type="line"/>
      <point x="579" y="390" type="line"/>
      <point x="154" y="566" type="line"/>
      <point x="138" y="453" type="line"/>
      <point x="485" y="321" type="line"/>
      <point x="490" y="359" type="line"/>
      <point x="107" y="239" type="line"/>
    </contour>
  </outline>
</glyph>
<glyph name="downBlackTriangle" format="2">
  <advance width="601"/>
  <unicode hex="25BC"/>
  <outline>
    <contour>
      <point x="321" y="-2" type="line" smooth="yes"/>
      <point x="330" y="-20"/>
      <point x="344" y="-20"/>
      <point x="353" y="-2" type="curve" smooth="yes"/>
      <point x="607" y="522" type="line" smooth="yes"/>
      <point x="613" y="534"/>
      <point x="607" y="544"/>
      <point x="593" y="544" type="curve" smooth="yes"/>
      <point x="81" y="544" type="line" smooth="yes"/>
      <point x="67" y="544"/>
      <point x="61" y="534"/>
      <point x="67" y="522" type="curve" smooth="yes"/>
    </contour>
  </outline>
</glyph>
<glyph name="G.ss03" format="2">
  <advance width="674"/>
  <note>
Versione senza gamba?
</note>
  <anchor x="299" y="0" name="bottom"/>
  <anchor x="396" y="692" name="top"/>
  <outline>
    <contour>
      <point x="296" y="-14" type="curve" smooth="yes"/>
      <point x="407" y="-14"/>
      <point x="490" y="53"/>
      <point x="543" y="153" type="curve"/>
      <point x="508" y="135" type="line"/>
      <point x="489" y="0" type="line"/>
      <point x="606" y="0" type="line"/>
      <point x="659" y="380" type="line"/>
      <point x="355" y="380" type="line"/>
      <point x="341" y="280" type="line"/>
      <point x="528" y="280" type="line"/>
      <point x="503" y="154"/>
      <point x="422" y="98"/>
      <point x="343" y="98" type="curve" smooth="yes"/>
      <point x="240" y="98"/>
      <point x="189" y="170"/>
      <point x="189" y="290" type="curve" smooth="yes"/>
      <point x="189" y="469"/>
      <point x="276" y="600"/>
      <point x="396" y="600" type="curve" smooth="yes"/>
      <point x="472" y="600"/>
      <point x="525" y="548"/>
      <point x="526" y="460" type="curve"/>
      <point x="676" y="498" type="line"/>
      <point x="665" y="622"/>
      <point x="559" y="706"/>
      <point x="415" y="706" type="curve" smooth="yes"/>
      <point x="198" y="706"/>
      <point x="37" y="521"/>
      <point x="37" y="269" type="curve" smooth="yes"/>
      <point x="37" y="97"/>
      <point x="126" y="-14"/>
    </contour>
  </outline>
</glyph>
<glyph name="I_J.dlig" format="2">
  <advance width="601"/>
  <outline>
    <contour>
      <point x="88" y="383" type="line"/>
      <point x="228" y="383" type="line"/>
      <point x="272" y="692" type="line"/>
      <point x="132" y="692" type="line"/>
    </contour>
    <component base="J" xOffset="59"/>
  </outline>
</glyph>
